  0
SECTION
  2
HEADER
  9
$ACADVER
  1
AC1009
  9
$EXTMIN
 10
83.185000
 20
57.785000
 30
0.000000
  9
$EXTMAX
 10
170.815000
 20
145.415000
 30
0.000000
  9
$LIMMIN
 10
83.185000
 20
57.785000
  9
$LIMMAX
 10
170.815000
 20
145.415000
  0
ENDSEC
  0
SECTION
  2
TABLES
  0
TABLE
  2
VPORT
 70
1
  0
VPORT
  2
*ACTIVE
 70
0
 10
0.000000
 20
0.000000
 11
1.000000
 21
1.000000
 12
127.000000
 22
101.600000
 13
0.000000
 23
0.000000
 14
1.000000
 24
1.000000
 15
0.000000
 25
0.000000
 16
0.000000
 26
0.000000
 36
1.000000
 17
0.000000
 27
0.000000
 37
0.000000
 40
101.600000
 41
1.750000
 42
50.000000
 43
0.000000
 44
0.000000
 50
0.000000
 51
0.000000
 71
0
 72
100
 73
1
 74
1
 75
0
 76
0
 77
0
 78
0
  0
ENDTAB
  0
TABLE
  2
LTYPE
 70
1
  0
LTYPE
  2
Continuous
 70
0
  3
Solid line
 72
65
 73
0
 40
0.000000
  0
ENDTAB
  0
TABLE
  2
LAYER
 70
91
  0
LAYER
  2
1
 70
0
 62
7
  6
Continuous
  0
ENDTAB
  0
ENDSEC
  0
SECTION
  2
ENTITIES
  0
POLYLINE
  8
1
 66
1
 10
0.000000
 20
0.000000
 30
0.000000
 40
0.000000
 41
0.000000
 70
1
  0
VERTEX
  8
1
 42
1.000000
 10
110.490000
 20
101.600000
  0
VERTEX
  8
1
 42
1.000000
 10
143.510000
 20
101.600000
  0
SEQEND
  0
POLYLINE
  8
1
 66
1
 10
0.000000
 20
0.000000
 30
0.000000
 70
1
  0
VERTEX
  8
1
 10
85.090000
 20
143.510000
  0
VERTEX
  8
1
 42
0.414214
 10
86.995000
 20
143.510000
  0
VERTEX
  8
1
 10
85.090000
 20
145.415000
  0
SEQEND
  0
POLYLINE
  8
1
 66
1
 10
0.000000
 20
0.000000
 30
0.000000
 70
1
  0
VERTEX
  8
1
 10
85.090000
 20
143.510000
  0
VERTEX
  8
1
 42
0.414214
 10
83.185000
 20
143.510000
  0
VERTEX
  8
1
 10
85.090000
 20
141.605000
  0
SEQEND
  0
POLYLINE
  8
1
 66
1
 10
0.000000
 20
0.000000
 30
0.000000
 70
1
  0
VERTEX
  8
1
 10
168.910000
 20
143.510000
  0
VERTEX
  8
1
 42
0.414214
 10
170.815000
 20
143.510000
  0
VERTEX
  8
1
 10
168.910000
 20
145.415000
  0
SEQEND
  0
POLYLINE
  8
1
 66
1
 10
0.000000
 20
0.000000
 30
0.000000
 70
1
  0
VERTEX
  8
1
 10
168.910000
 20
143.510000
  0
VERTEX
  8
1
 42
0.414214
 10
167.005000
 20
143.510000
  0
VERTEX
  8
1
 10
168.910000
 20
141.605000
  0
SEQEND
  0
POLYLINE
  8
1
 66
1
 10
0.000000
 20
0.000000
 30
0.000000
 70
1
  0
VERTEX
  8
1
 10
168.910000
 20
59.690000
  0
VERTEX
  8
1
 42
0.414214
 10
170.815000
 20
59.690000
  0
VERTEX
  8
1
 10
168.910000
 20
61.595000
  0
SEQEND
  0
POLYLINE
  8
1
 66
1
 10
0.000000
 20
0.000000
 30
0.000000
 70
1
  0
VERTEX
  8
1
 10
168.910000
 20
59.690000
  0
VERTEX
  8
1
 42
0.414214
 10
167.005000
 20
59.690000
  0
VERTEX
  8
1
 10
168.910000
 20
57.785000
  0
SEQEND
  0
POLYLINE
  8
1
 66
1
 10
0.000000
 20
0.000000
 30
0.000000
 40
0.000000
 41
0.000000
 70
1
  0
VERTEX
  8
1
 42
1.000000
 10
111.760000
 20
101.600000
  0
VERTEX
  8
1
 42
1.000000
 10
142.240000
 20
101.600000
  0
SEQEND
  0
POLYLINE
  8
1
 66
1
 10
0.000000
 20
0.000000
 30
0.000000
 40
0.000000
 41
0.000000
 70
1
  0
VERTEX
  8
1
 42
1.000000
 10
121.920000
 20
101.600000
  0
VERTEX
  8
1
 42
1.000000
 10
132.080000
 20
101.600000
  0
SEQEND
  0
POLYLINE
  8
1
 66
1
 10
0.000000
 20
0.000000
 30
0.000000
 40
0.571500
 41
0.571500
 70
1
  0
VERTEX
  8
1
 10
116.617750
 20
104.108250
  0
VERTEX
  8
1
 10
116.617750
 20
104.679750
  0
VERTEX
  8
1
 10
116.046250
 20
104.679750
  0
VERTEX
  8
1
 10
116.046250
 20
104.108250
  0
SEQEND
  0
POLYLINE
  8
1
 66
1
 10
0.000000
 20
0.000000
 30
0.000000
 40
0.571500
 41
0.571500
 70
1
  0
VERTEX
  8
1
 10
116.617750
 20
106.648250
  0
VERTEX
  8
1
 10
116.617750
 20
107.219750
  0
VERTEX
  8
1
 10
116.046250
 20
107.219750
  0
VERTEX
  8
1
 10
116.046250
 20
106.648250
  0
SEQEND
  0
POLYLINE
  8
1
 66
1
 10
0.000000
 20
0.000000
 30
0.000000
 40
0.571500
 41
0.571500
 70
1
  0
VERTEX
  8
1
 10
129.825750
 20
94.202250
  0
VERTEX
  8
1
 10
129.825750
 20
94.773750
  0
VERTEX
  8
1
 10
129.254250
 20
94.773750
  0
VERTEX
  8
1
 10
129.254250
 20
94.202250
  0
SEQEND
  0
POLYLINE
  8
1
 66
1
 10
0.000000
 20
0.000000
 30
0.000000
 40
0.571500
 41
0.571500
 70
1
  0
VERTEX
  8
1
 10
127.285750
 20
94.202250
  0
VERTEX
  8
1
 10
127.285750
 20
94.773750
  0
VERTEX
  8
1
 10
126.714250
 20
94.773750
  0
VERTEX
  8
1
 10
126.714250
 20
94.202250
  0
SEQEND
  0
POLYLINE
  8
1
 66
1
 10
0.000000
 20
0.000000
 30
0.000000
 40
0.444500
 41
0.444500
 70
1
  0
VERTEX
  8
1
 10
135.350250
 20
96.742250
  0
VERTEX
  8
1
 10
135.350250
 20
97.821750
  0
VERTEX
  8
1
 10
134.905750
 20
97.821750
  0
VERTEX
  8
1
 10
134.905750
 20
96.742250
  0
SEQEND
  0
POLYLINE
  8
1
 66
1
 10
0.000000
 20
0.000000
 30
0.000000
 40
0.444500
 41
0.444500
 70
1
  0
VERTEX
  8
1
 10
133.318250
 20
96.742250
  0
VERTEX
  8
1
 10
133.318250
 20
97.821750
  0
VERTEX
  8
1
 10
132.873750
 20
97.821750
  0
VERTEX
  8
1
 10
132.873750
 20
96.742250
  0
SEQEND
  0
POLYLINE
  8
1
 66
1
 10
0.000000
 20
0.000000
 30
0.000000
 40
0.444500
 41
0.444500
 70
1
  0
VERTEX
  8
1
 10
124.237750
 20
92.233750
  0
VERTEX
  8
1
 10
124.237750
 20
92.678250
  0
VERTEX
  8
1
 10
123.158250
 20
92.678250
  0
VERTEX
  8
1
 10
123.158250
 20
92.233750
  0
SEQEND
  0
POLYLINE
  8
1
 66
1
 10
0.000000
 20
0.000000
 30
0.000000
 40
0.444500
 41
0.444500
 70
1
  0
VERTEX
  8
1
 10
124.237750
 20
94.265750
  0
VERTEX
  8
1
 10
124.237750
 20
94.710250
  0
VERTEX
  8
1
 10
123.158250
 20
94.710250
  0
VERTEX
  8
1
 10
123.158250
 20
94.265750
  0
SEQEND
  0
POLYLINE
  8
1
 66
1
 10
0.000000
 20
0.000000
 30
0.000000
 40
0.812800
 41
0.812800
 70
1
  0
VERTEX
  8
1
 10
130.962400
 20
110.210600
  0
VERTEX
  8
1
 10
130.962400
 20
111.785400
  0
VERTEX
  8
1
 10
130.149600
 20
111.785400
  0
VERTEX
  8
1
 10
130.149600
 20
110.210600
  0
SEQEND
  0
POLYLINE
  8
1
 66
1
 10
0.000000
 20
0.000000
 30
0.000000
 40
0.812800
 41
0.812800
 70
1
  0
VERTEX
  8
1
 10
133.756400
 20
110.210600
  0
VERTEX
  8
1
 10
133.756400
 20
111.785400
  0
VERTEX
  8
1
 10
132.943600
 20
111.785400
  0
VERTEX
  8
1
 10
132.943600
 20
110.210600
  0
SEQEND
  0
POLYLINE
  8
1
 66
1
 10
0.000000
 20
0.000000
 30
0.000000
 40
0.812800
 41
0.812800
 70
1
  0
VERTEX
  8
1
 10
117.119400
 20
100.685600
  0
VERTEX
  8
1
 10
117.119400
 20
101.498400
  0
VERTEX
  8
1
 10
115.544600
 20
101.498400
  0
VERTEX
  8
1
 10
115.544600
 20
100.685600
  0
SEQEND
  0
POLYLINE
  8
1
 66
1
 10
0.000000
 20
0.000000
 30
0.000000
 40
0.812800
 41
0.812800
 70
1
  0
VERTEX
  8
1
 10
117.119400
 20
97.891600
  0
VERTEX
  8
1
 10
117.119400
 20
98.704400
  0
VERTEX
  8
1
 10
115.544600
 20
98.704400
  0
VERTEX
  8
1
 10
115.544600
 20
97.891600
  0
SEQEND
  0
POLYLINE
  8
1
 66
1
 10
0.000000
 20
0.000000
 30
0.000000
 40
0.444500
 41
0.444500
 70
1
  0
VERTEX
  8
1
 10
121.126250
 20
96.996250
  0
VERTEX
  8
1
 10
121.126250
 20
98.075750
  0
VERTEX
  8
1
 10
120.681750
 20
98.075750
  0
VERTEX
  8
1
 10
120.681750
 20
96.996250
  0
SEQEND
  0
POLYLINE
  8
1
 66
1
 10
0.000000
 20
0.000000
 30
0.000000
 40
0.444500
 41
0.444500
 70
1
  0
VERTEX
  8
1
 10
119.094250
 20
96.996250
  0
VERTEX
  8
1
 10
119.094250
 20
98.075750
  0
VERTEX
  8
1
 10
118.649750
 20
98.075750
  0
VERTEX
  8
1
 10
118.649750
 20
96.996250
  0
SEQEND
  0
POLYLINE
  8
1
 66
1
 10
0.000000
 20
0.000000
 30
0.000000
 40
0.889000
 41
0.889000
 70
1
  0
VERTEX
  8
1
 10
129.278482
 20
109.537500
  0
VERTEX
  8
1
 10
129.278482
 20
112.458500
  0
VERTEX
  8
1
 10
128.389482
 20
112.458500
  0
VERTEX
  8
1
 10
128.389482
 20
109.537500
  0
SEQEND
  0
POLYLINE
  8
1
 66
1
 10
0.000000
 20
0.000000
 30
0.000000
 40
0.889000
 41
0.889000
 70
1
  0
VERTEX
  8
1
 10
123.578518
 20
109.537500
  0
VERTEX
  8
1
 10
123.578518
 20
112.458500
  0
VERTEX
  8
1
 10
122.689518
 20
112.458500
  0
VERTEX
  8
1
 10
122.689518
 20
109.537500
  0
SEQEND
  0
POLYLINE
  8
1
 66
1
 10
0.000000
 20
0.000000
 30
0.000000
 40
1.143000
 41
1.143000
 70
1
  0
VERTEX
  8
1
 42
1.000000
 10
126.428500
 20
102.870000
  0
VERTEX
  8
1
 42
1.000000
 10
127.571500
 20
102.870000
  0
SEQEND
  0
POLYLINE
  8
1
 66
1
 10
0.000000
 20
0.000000
 30
0.000000
 40
1.143000
 41
1.143000
 70
1
  0
VERTEX
  8
1
 42
1.000000
 10
126.428500
 20
100.330000
  0
VERTEX
  8
1
 42
1.000000
 10
127.571500
 20
100.330000
  0
SEQEND
  0
POLYLINE
  8
1
 66
1
 10
0.000000
 20
0.000000
 30
0.000000
 40
0.215900
 41
0.215900
 70
1
  0
VERTEX
  8
1
 10
118.583964
 20
100.123955
  0
VERTEX
  8
1
 10
118.583964
 20
101.108053
  0
VERTEX
  8
1
 10
118.368064
 20
101.108053
  0
VERTEX
  8
1
 10
118.368064
 20
100.123955
  0
SEQEND
  0
POLYLINE
  8
1
 66
1
 10
0.000000
 20
0.000000
 30
0.000000
 40
0.215900
 41
0.215900
 70
1
  0
VERTEX
  8
1
 10
119.233950
 20
100.123955
  0
VERTEX
  8
1
 10
119.233950
 20
101.108053
  0
VERTEX
  8
1
 10
119.018050
 20
101.108053
  0
VERTEX
  8
1
 10
119.018050
 20
100.123955
  0
SEQEND
  0
POLYLINE
  8
1
 66
1
 10
0.000000
 20
0.000000
 30
0.000000
 40
0.215900
 41
0.215900
 70
1
  0
VERTEX
  8
1
 10
119.883936
 20
100.123955
  0
VERTEX
  8
1
 10
119.883936
 20
101.108053
  0
VERTEX
  8
1
 10
119.668036
 20
101.108053
  0
VERTEX
  8
1
 10
119.668036
 20
100.123955
  0
SEQEND
  0
POLYLINE
  8
1
 66
1
 10
0.000000
 20
0.000000
 30
0.000000
 40
0.215900
 41
0.215900
 70
1
  0
VERTEX
  8
1
 10
120.533947
 20
100.123955
  0
VERTEX
  8
1
 10
120.533947
 20
101.108053
  0
VERTEX
  8
1
 10
120.318047
 20
101.108053
  0
VERTEX
  8
1
 10
120.318047
 20
100.123955
  0
SEQEND
  0
POLYLINE
  8
1
 66
1
 10
0.000000
 20
0.000000
 30
0.000000
 40
0.215900
 41
0.215900
 70
1
  0
VERTEX
  8
1
 10
118.583964
 20
104.123947
  0
VERTEX
  8
1
 10
118.583964
 20
105.108045
  0
VERTEX
  8
1
 10
118.368064
 20
105.108045
  0
VERTEX
  8
1
 10
118.368064
 20
104.123947
  0
SEQEND
  0
POLYLINE
  8
1
 66
1
 10
0.000000
 20
0.000000
 30
0.000000
 40
0.215900
 41
0.215900
 70
1
  0
VERTEX
  8
1
 10
119.233950
 20
104.123947
  0
VERTEX
  8
1
 10
119.233950
 20
105.108045
  0
VERTEX
  8
1
 10
119.018050
 20
105.108045
  0
VERTEX
  8
1
 10
119.018050
 20
104.123947
  0
SEQEND
  0
POLYLINE
  8
1
 66
1
 10
0.000000
 20
0.000000
 30
0.000000
 40
0.215900
 41
0.215900
 70
1
  0
VERTEX
  8
1
 10
119.883936
 20
104.123947
  0
VERTEX
  8
1
 10
119.883936
 20
105.108045
  0
VERTEX
  8
1
 10
119.668036
 20
105.108045
  0
VERTEX
  8
1
 10
119.668036
 20
104.123947
  0
SEQEND
  0
POLYLINE
  8
1
 66
1
 10
0.000000
 20
0.000000
 30
0.000000
 40
0.215900
 41
0.215900
 70
1
  0
VERTEX
  8
1
 10
120.533947
 20
104.123947
  0
VERTEX
  8
1
 10
120.533947
 20
105.108045
  0
VERTEX
  8
1
 10
120.318047
 20
105.108045
  0
VERTEX
  8
1
 10
120.318047
 20
104.123947
  0
SEQEND
  0
POLYLINE
  8
1
 66
1
 10
0.000000
 20
0.000000
 30
0.000000
 40
1.016000
 41
1.016000
 70
1
  0
VERTEX
  8
1
 10
131.064000
 20
90.678000
  0
VERTEX
  8
1
 10
131.064000
 20
91.694000
  0
VERTEX
  8
1
 10
130.048000
 20
91.694000
  0
VERTEX
  8
1
 10
130.048000
 20
90.678000
  0
SEQEND
  0
POLYLINE
  8
1
 66
1
 10
0.000000
 20
0.000000
 30
0.000000
 40
0.508000
 41
0.508000
 70
1
  0
VERTEX
  8
1
 10
126.746000
 20
92.202000
  0
VERTEX
  8
1
 10
126.746000
 20
92.710000
  0
VERTEX
  8
1
 10
125.222000
 20
92.710000
  0
VERTEX
  8
1
 10
125.222000
 20
92.202000
  0
SEQEND
  0
POLYLINE
  8
1
 66
1
 10
0.000000
 20
0.000000
 30
0.000000
 40
0.508000
 41
0.508000
 70
1
  0
VERTEX
  8
1
 10
126.746000
 20
89.662000
  0
VERTEX
  8
1
 10
126.746000
 20
90.170000
  0
VERTEX
  8
1
 10
125.222000
 20
90.170000
  0
VERTEX
  8
1
 10
125.222000
 20
89.662000
  0
SEQEND
  0
POLYLINE
  8
1
 66
1
 10
0.000000
 20
0.000000
 30
0.000000
 40
1.206500
 41
1.206500
 70
1
  0
VERTEX
  8
1
 42
1.000000
 10
120.046750
 20
107.950000
  0
VERTEX
  8
1
 42
1.000000
 10
121.253250
 20
107.950000
  0
SEQEND
  0
POLYLINE
  8
1
 66
1
 10
0.000000
 20
0.000000
 30
0.000000
 40
1.206500
 41
1.206500
 70
1
  0
VERTEX
  8
1
 42
1.000000
 10
132.746750
 20
107.950000
  0
VERTEX
  8
1
 42
1.000000
 10
133.953250
 20
107.950000
  0
SEQEND
  0
POLYLINE
  8
1
 66
1
 10
0.000000
 20
0.000000
 30
0.000000
 40
1.206500
 41
1.206500
 70
1
  0
VERTEX
  8
1
 42
1.000000
 10
120.046750
 20
93.980000
  0
VERTEX
  8
1
 42
1.000000
 10
121.253250
 20
93.980000
  0
SEQEND
  0
POLYLINE
  8
1
 66
1
 10
0.000000
 20
0.000000
 30
0.000000
 40
1.206500
 41
1.206500
 70
1
  0
VERTEX
  8
1
 42
1.000000
 10
132.746750
 20
93.980000
  0
VERTEX
  8
1
 42
1.000000
 10
133.953250
 20
93.980000
  0
SEQEND
  0
POLYLINE
  8
1
 66
1
 10
0.000000
 20
0.000000
 30
0.000000
 40
16.668750
 41
16.668750
 70
1
  0
VERTEX
  8
1
 42
1.000000
 10
118.665625
 20
101.600000
  0
VERTEX
  8
1
 42
1.000000
 10
135.334375
 20
101.600000
  0
SEQEND
  0
POLYLINE
  8
1
 66
1
 10
0.000000
 20
0.000000
 30
0.000000
 40
0.431800
 41
0.431800
  0
VERTEX
  8
1
 10
116.332000
 20
106.934000
  0
VERTEX
  8
1
 10
118.364000
 20
106.934000
  0
VERTEX
  8
1
 10
119.126000
 20
106.172000
  0
VERTEX
  8
1
 10
119.126000
 20
104.615996
  0
SEQEND
  0
POLYLINE
  8
1
 66
1
 10
0.000000
 20
0.000000
 30
0.000000
 40
0.762000
 41
0.762000
  0
VERTEX
  8
1
 10
116.332000
 20
106.934000
  0
VERTEX
  8
1
 10
118.364000
 20
106.934000
  0
VERTEX
  8
1
 10
118.364000
 20
108.966000
  0
VERTEX
  8
1
 10
120.396000
 20
110.998000
  0
VERTEX
  8
1
 10
123.134018
 20
110.998000
  0
SEQEND
  0
POLYLINE
  8
1
 66
1
 10
0.000000
 20
0.000000
 30
0.000000
 40
1.524000
 41
1.524000
  0
VERTEX
  8
1
 10
128.833982
 20
110.998000
  0
VERTEX
  8
1
 10
130.556000
 20
110.998000
  0
SEQEND
  0
POLYLINE
  8
1
 66
1
 10
0.000000
 20
0.000000
 30
0.000000
 40
0.431800
 41
0.431800
  0
VERTEX
  8
1
 10
118.476014
 20
100.616004
  0
VERTEX
  8
1
 10
118.476014
 20
101.854000
  0
VERTEX
  8
1
 10
121.412000
 20
101.854000
  0
VERTEX
  8
1
 10
121.412000
 20
100.330000
  0
VERTEX
  8
1
 10
127.000000
 20
100.330000
  0
SEQEND
  0
POLYLINE
  8
1
 66
1
 10
0.000000
 20
0.000000
 30
0.000000
 40
0.431800
 41
0.431800
  0
VERTEX
  8
1
 10
120.904000
 20
97.536000
  0
VERTEX
  8
1
 10
120.904000
 20
99.089997
  0
VERTEX
  8
1
 10
120.425997
 20
99.568000
  0
VERTEX
  8
1
 10
120.425997
 20
100.616004
  0
SEQEND
  0
POLYLINE
  8
1
 66
1
 10
0.000000
 20
0.000000
 30
0.000000
 40
0.762000
 41
0.762000
  0
VERTEX
  8
1
 10
127.000000
 20
100.330000
  0
VERTEX
  8
1
 10
127.000000
 20
94.488000
  0
SEQEND
  0
POLYLINE
  8
1
 66
1
 10
0.000000
 20
0.000000
 30
0.000000
 40
0.762000
 41
0.762000
  0
VERTEX
  8
1
 10
129.540000
 20
94.488000
  0
VERTEX
  8
1
 10
130.556000
 20
94.488000
  0
VERTEX
  8
1
 10
130.556000
 20
95.758000
  0
VERTEX
  8
1
 10
132.080000
 20
97.282000
  0
VERTEX
  8
1
 10
133.350000
 20
97.282000
  0
VERTEX
  8
1
 10
133.096000
 20
97.282000
  0
SEQEND
  0
POLYLINE
  8
1
 66
1
 10
0.000000
 20
0.000000
 30
0.000000
 40
0.762000
 41
0.762000
  0
VERTEX
  8
1
 10
116.332000
 20
104.394000
  0
VERTEX
  8
1
 10
116.332000
 20
102.870000
  0
VERTEX
  8
1
 10
127.000000
 20
102.870000
  0
SEQEND
  0
POLYLINE
  8
1
 66
1
 10
0.000000
 20
0.000000
 30
0.000000
 40
0.304800
 41
0.304800
  0
VERTEX
  8
1
 10
116.332000
 20
104.394000
  0
VERTEX
  8
1
 10
116.332000
 20
102.870000
  0
VERTEX
  8
1
 10
118.476014
 20
102.870000
  0
VERTEX
  8
1
 10
118.476014
 20
104.615996
  0
SEQEND
  0
POLYLINE
  8
1
 66
1
 10
0.000000
 20
0.000000
 30
0.000000
 40
0.431800
 41
0.431800
  0
VERTEX
  8
1
 10
118.476014
 20
104.615996
  0
VERTEX
  8
1
 10
118.476014
 20
102.870000
  0
VERTEX
  8
1
 10
120.425997
 20
102.870000
  0
VERTEX
  8
1
 10
120.425997
 20
104.615996
  0
SEQEND
  0
POLYLINE
  8
1
 66
1
 10
0.000000
 20
0.000000
 30
0.000000
 40
0.762000
 41
0.762000
  0
VERTEX
  8
1
 10
130.556000
 20
91.186000
  0
VERTEX
  8
1
 10
130.556000
 20
94.488000
  0
VERTEX
  8
1
 10
129.540000
 20
94.488000
  0
SEQEND
  0
POLYLINE
  8
1
 66
1
 10
0.000000
 20
0.000000
 30
0.000000
 40
0.762000
 41
0.762000
  0
VERTEX
  8
1
 10
125.984000
 20
89.916000
  0
VERTEX
  8
1
 10
127.508000
 20
89.916000
  0
VERTEX
  8
1
 10
128.778000
 20
91.186000
  0
VERTEX
  8
1
 10
130.556000
 20
91.186000
  0
SEQEND
  0
POLYLINE
  8
1
 66
1
 10
0.000000
 20
0.000000
 30
0.000000
 40
0.762000
 41
0.762000
  0
VERTEX
  8
1
 10
123.698000
 20
92.456000
  0
VERTEX
  8
1
 10
125.984000
 20
92.456000
  0
SEQEND
  0
POLYLINE
  8
1
 66
1
 10
0.000000
 20
0.000000
 30
0.000000
 40
0.431800
 41
0.431800
  0
VERTEX
  8
1
 10
119.775986
 20
104.615996
  0
VERTEX
  8
1
 10
119.775986
 20
105.664000
  0
VERTEX
  8
1
 10
120.650000
 20
106.538014
  0
VERTEX
  8
1
 10
120.650000
 20
107.950000
  0
SEQEND
  0
POLYLINE
  8
1
 66
1
 10
0.000000
 20
0.000000
 30
0.000000
 40
0.431800
 41
0.431800
  0
VERTEX
  8
1
 10
119.126000
 20
100.616004
  0
VERTEX
  8
1
 10
119.126000
 20
99.568000
  0
VERTEX
  8
1
 10
119.775986
 20
99.568000
  0
VERTEX
  8
1
 10
119.775986
 20
100.616004
  0
SEQEND
  0
POLYLINE
  8
1
 66
1
 10
0.000000
 20
0.000000
 30
0.000000
 40
0.762000
 41
0.762000
  0
VERTEX
  8
1
 10
118.872000
 20
97.536000
  0
VERTEX
  8
1
 10
118.872000
 20
93.980000
  0
VERTEX
  8
1
 10
120.650000
 20
93.980000
  0
SEQEND
  0
POLYLINE
  8
1
 66
1
 10
0.000000
 20
0.000000
 30
0.000000
 40
0.762000
 41
0.762000
  0
VERTEX
  8
1
 10
120.650000
 20
93.980000
  0
VERTEX
  8
1
 10
120.650000
 20
94.488000
  0
VERTEX
  8
1
 10
123.698000
 20
94.488000
  0
SEQEND
  0
POLYLINE
  8
1
 66
1
 10
0.000000
 20
0.000000
 30
0.000000
 40
0.762000
 41
0.762000
  0
VERTEX
  8
1
 10
120.650000
 20
93.980000
  0
VERTEX
  8
1
 10
120.650000
 20
90.170000
  0
VERTEX
  8
1
 10
122.428000
 20
88.392000
  0
VERTEX
  8
1
 10
131.572000
 20
88.392000
  0
VERTEX
  8
1
 10
133.350000
 20
90.170000
  0
VERTEX
  8
1
 10
133.350000
 20
93.980000
  0
SEQEND
  0
POLYLINE
  8
1
 66
1
 10
0.000000
 20
0.000000
 30
0.000000
 40
0.762000
 41
0.762000
  0
VERTEX
  8
1
 10
133.350000
 20
93.980000
  0
VERTEX
  8
1
 10
135.128000
 20
93.980000
  0
VERTEX
  8
1
 10
135.128000
 20
97.282000
  0
SEQEND
  0
POLYLINE
  8
1
 66
1
 10
0.000000
 20
0.000000
 30
0.000000
 40
0.762000
 41
0.762000
  0
VERTEX
  8
1
 10
133.350000
 20
107.950000
  0
VERTEX
  8
1
 10
133.350000
 20
110.998000
  0
SEQEND
  0
POLYLINE
  8
1
 66
1
 10
0.000000
 20
0.000000
 30
0.000000
 40
0.762000
 41
0.762000
  0
VERTEX
  8
1
 10
116.332000
 20
101.092000
  0
VERTEX
  8
1
 10
116.332000
 20
102.870000
  0
VERTEX
  8
1
 10
116.332000
 20
104.394000
  0
SEQEND
  0
POLYLINE
  8
1
 66
1
 10
0.000000
 20
0.000000
 30
0.000000
 40
0.431800
 41
0.431800
  0
VERTEX
  8
1
 10
118.872000
 20
97.536000
  0
VERTEX
  8
1
 10
118.872000
 20
99.314000
  0
VERTEX
  8
1
 10
119.126000
 20
99.568000
  0
VERTEX
  8
1
 10
119.126000
 20
100.616004
  0
SEQEND
  0
POLYLINE
  8
1
 66
1
 10
0.000000
 20
0.000000
 30
0.000000
 40
1.524000
 41
1.524000
  0
VERTEX
  8
1
 10
116.332000
 20
98.298000
  0
VERTEX
  8
1
 10
116.332000
 20
96.520000
  0
VERTEX
  8
1
 10
118.872000
 20
93.980000
  0
VERTEX
  8
1
 10
120.650000
 20
93.980000
  0
SEQEND
  0
POLYLINE
  8
1
 66
1
 10
0.000000
 20
0.000000
 30
0.000000
 40
0.762000
 41
0.762000
  0
VERTEX
  8
1
 10
135.128000
 20
97.282000
  0
VERTEX
  8
1
 10
135.128000
 20
99.060000
  0
VERTEX
  8
1
 10
133.350000
 20
100.838000
  0
VERTEX
  8
1
 10
133.350000
 20
107.950000
  0
SEQEND
  0
POLYLINE
  8
1
 66
1
 10
0.000000
 20
0.000000
 30
0.000000
 40
0.762000
 41
0.762000
  0
VERTEX
  8
1
 10
120.650000
 20
107.950000
  0
VERTEX
  8
1
 10
133.350000
 20
107.950000
  0
SEQEND
  0
POLYLINE
  8
1
 66
1
 10
0.000000
 20
0.000000
 30
0.000000
 40
0.762000
 41
0.762000
  0
VERTEX
  8
1
 10
122.936000
 20
102.108000
  0
VERTEX
  8
1
 10
131.064000
 20
102.108000
  0
SEQEND
  0
POLYLINE
  8
1
 66
1
 10
0.000000
 20
0.000000
 30
0.000000
 40
0.762000
 41
0.762000
  0
VERTEX
  8
1
 10
122.936000
 20
101.092000
  0
VERTEX
  8
1
 10
131.064000
 20
101.092000
  0
SEQEND
  0
POLYLINE
  8
1
 66
1
 10
0.000000
 20
0.000000
 30
0.000000
 40
0.762000
 41
0.762000
  0
VERTEX
  8
1
 42
-0.874998
 10
122.936000
 20
102.108000
  0
VERTEX
  8
1
 10
131.064000
 20
102.108000
  0
SEQEND
  0
POLYLINE
  8
1
 66
1
 10
0.000000
 20
0.000000
 30
0.000000
 40
0.762000
 41
0.762000
  0
VERTEX
  8
1
 42
0.874998
 10
122.936000
 20
101.092000
  0
VERTEX
  8
1
 10
131.064000
 20
101.092000
  0
SEQEND
  0
POLYLINE
  8
1
 66
1
 10
0.000000
 20
0.000000
 30
0.000000
 40
0.762000
 41
0.762000
  0
VERTEX
  8
1
 10
123.444000
 20
102.616000
  0
VERTEX
  8
1
 10
130.556000
 20
102.616000
  0
SEQEND
  0
POLYLINE
  8
1
 66
1
 10
0.000000
 20
0.000000
 30
0.000000
 40
0.762000
 41
0.762000
  0
VERTEX
  8
1
 10
123.444000
 20
103.124000
  0
VERTEX
  8
1
 10
130.556000
 20
103.124000
  0
SEQEND
  0
POLYLINE
  8
1
 66
1
 10
0.000000
 20
0.000000
 30
0.000000
 40
0.762000
 41
0.762000
  0
VERTEX
  8
1
 10
130.048000
 20
103.632000
  0
VERTEX
  8
1
 10
123.952000
 20
103.632000
  0
SEQEND
  0
POLYLINE
  8
1
 66
1
 10
0.000000
 20
0.000000
 30
0.000000
 40
0.762000
 41
0.762000
  0
VERTEX
  8
1
 10
123.952000
 20
104.140000
  0
VERTEX
  8
1
 10
130.048000
 20
104.140000
  0
SEQEND
  0
POLYLINE
  8
1
 66
1
 10
0.000000
 20
0.000000
 30
0.000000
 40
0.762000
 41
0.762000
  0
VERTEX
  8
1
 10
129.540000
 20
104.648000
  0
VERTEX
  8
1
 10
124.460000
 20
104.648000
  0
SEQEND
  0
POLYLINE
  8
1
 66
1
 10
0.000000
 20
0.000000
 30
0.000000
 40
0.762000
 41
0.762000
  0
VERTEX
  8
1
 10
125.476000
 20
105.156000
  0
VERTEX
  8
1
 10
128.524000
 20
105.156000
  0
SEQEND
  0
POLYLINE
  8
1
 66
1
 10
0.000000
 20
0.000000
 30
0.000000
 40
0.762000
 41
0.762000
  0
VERTEX
  8
1
 10
123.444000
 20
100.584000
  0
VERTEX
  8
1
 10
130.556000
 20
100.584000
  0
SEQEND
  0
POLYLINE
  8
1
 66
1
 10
0.000000
 20
0.000000
 30
0.000000
 40
0.762000
 41
0.762000
  0
VERTEX
  8
1
 10
130.556000
 20
100.076000
  0
VERTEX
  8
1
 10
123.444000
 20
100.076000
  0
SEQEND
  0
POLYLINE
  8
1
 66
1
 10
0.000000
 20
0.000000
 30
0.000000
 40
0.762000
 41
0.762000
  0
VERTEX
  8
1
 10
123.952000
 20
99.568000
  0
VERTEX
  8
1
 10
130.048000
 20
99.568000
  0
SEQEND
  0
POLYLINE
  8
1
 66
1
 10
0.000000
 20
0.000000
 30
0.000000
 40
0.762000
 41
0.762000
  0
VERTEX
  8
1
 10
130.048000
 20
99.060000
  0
VERTEX
  8
1
 10
123.952000
 20
99.060000
  0
SEQEND
  0
POLYLINE
  8
1
 66
1
 10
0.000000
 20
0.000000
 30
0.000000
 40
0.762000
 41
0.762000
  0
VERTEX
  8
1
 10
124.460000
 20
98.552000
  0
VERTEX
  8
1
 10
129.540000
 20
98.552000
  0
SEQEND
  0
POLYLINE
  8
1
 66
1
 10
0.000000
 20
0.000000
 30
0.000000
 40
0.762000
 41
0.762000
  0
VERTEX
  8
1
 10
125.476000
 20
98.044000
  0
VERTEX
  8
1
 10
128.524000
 20
98.044000
  0
SEQEND
  0
POLYLINE
  8
1
 66
1
 10
0.000000
 20
0.000000
 30
0.000000
 40
1.524000
 41
1.524000
  0
VERTEX
  8
1
 10
128.778000
 20
110.998000
  0
VERTEX
  8
1
 10
128.778000
 20
117.348000
  0
SEQEND
  0
ENDSEC
  0
EOF
