  0
SECTION
  2
HEADER
  9
$ACADVER
  1
AC1009
  9
$INSBASE
 10
0.0
 20
0.0
 30
0.0
  9
$EXTMIN
 10
490.65969316073898
 20
491.60961463176028
 30
0.0
  9
$EXTMAX
 10
523.99659072323914
 20
524.94651219426044
 30
0.0
  9
$LIMMIN
 10
412.74999000000003
 20
412.74999000000003
  9
$LIMMAX
 10
603.25000999999997
 20
603.25000999999997
  9
$ORTHOMODE
 70
     0
  9
$REGENMODE
 70
     1
  9
$FILLMODE
 70
     1
  9
$QTEXTMODE
 70
     0
  9
$MIRRTEXT
 70
     0
  9
$DRAGMODE
 70
     2
  9
$LTSCALE
 40
1.0
  9
$OSMODE
 70
    32
  9
$ATTMODE
 70
     1
  9
$TEXTSIZE
 40
0.2
  9
$TRACEWID
 40
0.05
  9
$TEXTSTYLE
  7
STANDARD
  9
$CLAYER
  8
VP
  9
$CELTYPE
  6
CONTINUOUS
  9
$CECOLOR
 62
   256
  9
$DIMSCALE
 40
1.0
  9
$DIMASZ
 40
0.18
  9
$DIMEXO
 40
0.0625
  9
$DIMDLI
 40
0.38
  9
$DIMRND
 40
0.0
  9
$DIMDLE
 40
0.0
  9
$DIMEXE
 40
0.18
  9
$DIMTP
 40
0.0
  9
$DIMTM
 40
0.0
  9
$DIMTXT
 40
0.18
  9
$DIMCEN
 40
0.09
  9
$DIMTSZ
 40
0.0
  9
$DIMTOL
 70
     0
  9
$DIMLIM
 70
     0
  9
$DIMTIH
 70
     1
  9
$DIMTOH
 70
     1
  9
$DIMSE1
 70
     0
  9
$DIMSE2
 70
     0
  9
$DIMTAD
 70
     0
  9
$DIMZIN
 70
     0
  9
$DIMBLK
  1

  9
$DIMASO
 70
     1
  9
$DIMSHO
 70
     1
  9
$DIMPOST
  1

  9
$DIMAPOST
  1

  9
$DIMALT
 70
     0
  9
$DIMALTD
 70
     2
  9
$DIMALTF
 40
25.399999999999999
  9
$DIMLFAC
 40
1.0
  9
$DIMTOFL
 70
     0
  9
$DIMTVP
 40
0.0
  9
$DIMTIX
 70
     0
  9
$DIMSOXD
 70
     0
  9
$DIMSAH
 70
     0
  9
$DIMBLK1
  1

  9
$DIMBLK2
  1

  9
$DIMSTYLE
  2
STANDARD
  9
$DIMCLRD
 70
     0
  9
$DIMCLRE
 70
     0
  9
$DIMCLRT
 70
     0
  9
$DIMTFAC
 40
1.0
  9
$DIMGAP
 40
0.09
  9
$LUNITS
 70
     2
  9
$LUPREC
 70
     4
  9
$SKETCHINC
 40
0.1
  9
$FILLETRAD
 40
0.0
  9
$AUNITS
 70
     0
  9
$AUPREC
 70
     0
  9
$MENU
  1
.
  9
$ELEVATION
 40
0.0
  9
$PELEVATION
 40
0.0
  9
$THICKNESS
 40
0.0
  9
$LIMCHECK
 70
     0
  9
$BLIPMODE
 70
     0
  9
$CHAMFERA
 40
1.779093980576703
  9
$CHAMFERB
 40
1.779093980576703
  9
$SKPOLY
 70
     0
  9
$TDCREATE
 40
2455617.7708758218
  9
$TDUPDATE
 40
2456206.610565498
  9
$TDINDWG
 40
0.7291934028
  9
$TDUSRTIMER
 40
0.7291934028
  9
$USRTIMER
 70
     1
  9
$ANGBASE
 50
0.0
  9
$ANGDIR
 70
     0
  9
$PDMODE
 70
    32
  9
$PDSIZE
 40
0.0
  9
$PLINEWID
 40
0.0
  9
$COORDS
 70
     0
  9
$SPLFRAME
 70
     0
  9
$SPLINETYPE
 70
     6
  9
$SPLINESEGS
 70
     8
  9
$ATTDIA
 70
     0
  9
$ATTREQ
 70
     1
  9
$HANDLING
 70
     1
  9
$HANDSEED
  5
570A
  9
$SURFTAB1
 70
     6
  9
$SURFTAB2
 70
     6
  9
$SURFTYPE
 70
     6
  9
$SURFU
 70
     6
  9
$SURFV
 70
     6
  9
$UCSNAME
  2

  9
$UCSORG
 10
0.0
 20
0.0
 30
0.0
  9
$UCSXDIR
 10
1.0
 20
0.0
 30
0.0
  9
$UCSYDIR
 10
0.0
 20
1.0
 30
0.0
  9
$PUCSNAME
  2

  9
$PUCSORG
 10
0.0
 20
0.0
 30
0.0
  9
$PUCSXDIR
 10
1.0
 20
0.0
 30
0.0
  9
$PUCSYDIR
 10
0.0
 20
1.0
 30
0.0
  9
$USERI1
 70
     0
  9
$USERI2
 70
     0
  9
$USERI3
 70
     0
  9
$USERI4
 70
     0
  9
$USERI5
 70
     0
  9
$USERR1
 40
0.0
  9
$USERR2
 40
0.0
  9
$USERR3
 40
0.0
  9
$USERR4
 40
0.0
  9
$USERR5
 40
0.0
  9
$WORLDVIEW
 70
     1
  9
$SHADEDGE
 70
     3
  9
$SHADEDIF
 70
    70
  9
$TILEMODE
 70
     1
  9
$MAXACTVP
 70
    64
  9
$PLIMCHECK
 70
     0
  9
$PEXTMIN
 10
1.0000000000000000E+020
 20
1.0000000000000000E+020
 30
1.0000000000000000E+020
  9
$PEXTMAX
 10
-1.0000000000000000E+020
 20
-1.0000000000000000E+020
 30
-1.0000000000000000E+020
  9
$PLIMMIN
 10
-0.2500002402958907
 20
-0.2499999962453767
  9
$PLIMMAX
 10
10.74999951940822
 20
8.2499997634587334
  9
$UNITMODE
 70
     0
  9
$VISRETAIN
 70
     1
  9
$PLINEGEN
 70
     0
  9
$PSLTSCALE
 70
     1
  0
ENDSEC
  0
SECTION
  2
TABLES
  0
TABLE
  2
VPORT
 70
     1
  0
VPORT
  2
*ACTIVE
 70
     0
 10
0.0
 20
0.0
 11
1.0
 21
1.0
 12
507.32814194198909
 22
508.93168748917378
 13
0.0
 23
0.0
 14
1.0
 24
1.0
 15
0.0
 25
0.0
 16
0.0
 26
0.0
 36
1.0
 17
0.0
 27
0.0
 37
0.0
 40
34.887185065221807
 41
1.4742388758782199
 42
50.0
 43
0.0
 44
0.0
 50
0.0
 51
0.0
 71
     0
 72
   100
 73
     1
 74
     1
 75
     0
 76
     0
 77
     0
 78
     0
  0
ENDTAB
  0
TABLE
  2
LTYPE
 70
     2
  0
LTYPE
  2
CONTINUOUS
 70
     0
  3
Solid line
 72
    65
 73
     0
 40
0.0
  0
LTYPE
  2
PHANTOM2
 70
     0
  3
___ _ _ ___ _ _ ___ _ _ ___ _ _
 72
    65
 73
     6
 40
1.25
 49
0.625
 49
-0.125
 49
0.125
 49
-0.125
 49
0.125
 49
-0.125
  0
ENDTAB
  0
TABLE
  2
LAYER
 70
     5
  0
LAYER
  2
0
 70
     0
 62
     1
  6
CONTINUOUS
  0
LAYER
  2
1
 70
     0
 62
     1
  6
CONTINUOUS
  0
LAYER
  2
TRACK
 70
     0
 62
     1
  6
CONTINUOUS
  0
LAYER
  2
VP
 70
     0
 62
     1
  6
CONTINUOUS
  0
LAYER
  2
H1
 70
     0
 62
     2
  6
CONTINUOUS
  0
ENDTAB
  0
TABLE
  2
STYLE
 70
     3
  0
STYLE
  2
STANDARD
 70
     0
 40
0.0
 41
1.0
 50
0.0
 71
     0
 42
0.2
  3
txt
  4

  0
ENDTAB
  0
TABLE
  2
VIEW
 70
     6
  0
VIEW
  2
VIEW_1
 70
     0
 40
89.223284913776851
 10
508.91331495471132
 20
506.66895394371051
 41
68.335291328962057
 11
0.0
 21
0.0
 31
1.0
 12
0.0
 22
0.0
 32
0.0
 42
50.0
 43
0.0
 44
0.0
 50
0.0
 71
     0
  0
VIEW
  2
PAPERSPACE
 70
     0
 40
47.331852957208923
 10
-507.32814194199022
 20
508.2780634130109
 41
47.331852957208923
 11
0.0
 21
0.0000000000000002
 31
-1.0
 12
0.0
 22
0.0
 32
0.0
 42
50.0
 43
0.0
 44
0.0
 50
0.0
 71
     0
  0
ENDTAB
  0
TABLE
  2
UCS
 70
     0
  0
ENDTAB
  0
TABLE
  2
APPID
 70
     8
  0
APPID
  2
ACAD
 70
     0
  0
APPID
  2
ACADANNOTATIVE
 70
     0
  0
APPID
  2
ACAD_EXEMPT_FROM_CAD_STANDARDS
 70
     0
  0
APPID
  2
ACAD_NAV_VCDISPLAY
 70
     0
  0
APPID
  2
ACAD_PSEXT
 70
     0
  0
APPID
  2
GRADIENTCOLOR1ACI
 70
     0
  0
APPID
  2
GRADIENTCOLOR2ACI
 70
     0
  0
APPID
  2
ACAD_MLEADERVER
 70
     0
  0
ENDTAB
  0
TABLE
  2
DIMSTYLE
 70
     3
  0
DIMSTYLE
  2
STANDARD
 70
     0
  3

  4

  5

  6

  7

 40
1.0
 41
0.18
 42
0.0625
 43
0.38
 44
0.18
 45
0.0
 46
0.0
 47
0.0
 48
0.0
140
0.18
141
0.09
142
0.0
143
25.399999999999999
144
1.0
145
0.0
146
1.0
147
0.09
 71
     0
 72
     0
 73
     1
 74
     1
 75
     0
 76
     0
 77
     0
 78
     0
170
     0
171
     2
172
     0
173
     0
174
     0
175
     0
176
     0
177
     0
178
     0
  0
ENDTAB
  0
ENDSEC
  0
SECTION
  2
BLOCKS
  0
BLOCK
  8
0
  2
$MODEL_SPACE
 70
     0
 10
0.0
 20
0.0
 30
0.0
  3
$MODEL_SPACE
  1

  0
ENDBLK
  5
78
  8
0
  0
BLOCK
 67
     1
  8
0
  2
$PAPER_SPACE
 70
     0
 10
0.0
 20
0.0
 30
0.0
  3
$PAPER_SPACE
  1

  0
ENDBLK
  5
55A3
 67
     1
  8
0
  0
ENDSEC
  0
SECTION
  2
ENTITIES
  0
LINE
  5
21CE
  8
TRACK
 62
     4
 10
508.0068941292696
 20
496.00510223352933
 30
0.0
 11
509.29835665434848
 21
497.29656475860833
 31
0.0
  0
LINE
  5
21CF
  8
TRACK
 62
     4
 10
507.68255968528661
 20
496.78811484693802
 30
0.0
 11
508.97402221036549
 21
498.0795773720169
 31
0.0
  0
LINE
  5
21D0
  8
TRACK
 62
     4
 10
508.97402221036549
 20
498.0795773720169
 30
0.0
 11
509.94665849491361
 21
498.0795773720169
 31
0.0
  0
LINE
  5
21D1
  8
TRACK
 62
     4
 10
509.29835665434848
 20
497.29656475860833
 30
0.0
 11
509.94665849491349
 21
497.29656475860833
 31
0.0
  0
LINE
  5
21D2
  8
TRACK
 62
     4
 10
510.55273061601957
 20
498.6856494931227
 30
0.0
 11
510.55273061601957
 21
500.65436714483923
 31
0.0
  0
LINE
  5
21D3
  8
TRACK
 62
     4
 10
511.33574322942798
 20
498.6856494931227
 30
0.0
 11
511.33574322942798
 21
502.17516875463082
 31
0.0
  0
LINE
  5
21D4
  8
TRACK
 62
     4
 10
511.33574322942798
 20
502.17516875463082
 30
0.0
 11
512.65615904057938
 21
503.495584565782
 31
0.0
  0
LINE
  5
21D5
  8
TRACK
 62
     4
 10
510.55273061601957
 20
502.4995031986137
 30
0.0
 11
512.33182459659633
 21
504.27859717919051
 31
0.0
  0
LINE
  5
21DD
  8
TRACK
 62
     4
 10
510.49247913772518
 20
501.43737975824752
 30
0.0
 11
510.55273061601957
 21
501.43737975824769
 31
0.0
  0
LINE
  5
21DE
  8
TRACK
 62
     4
 10
510.49247913772518
 20
500.65436714483923
 30
0.0
 11
510.55273061601957
 21
500.65436714483923
 31
0.0
  0
LINE
  5
2214
  8
TRACK
 62
     4
 10
512.33182459659633
 20
504.27859717919051
 30
0.0
 11
513.07520082832161
 21
504.27859717919051
 31
0.0
  0
LINE
  5
2215
  8
TRACK
 62
     4
 10
512.65615904057938
 20
503.495584565782
 30
0.0
 11
513.0752008283215
 21
503.495584565782
 31
0.0
  0
LINE
  5
2219
  8
TRACK
 62
     4
 10
510.55273061601957
 20
501.43737975824769
 30
0.0
 11
510.55273061601957
 21
502.4995031986137
 31
0.0
  0
LINE
  5
223C
  8
TRACK
 62
     4
 10
507.3271249204642
 20
496.78811484693802
 30
0.0
 11
507.68255968528661
 21
496.78811484693802
 31
0.0
  0
LINE
  5
223D
  8
TRACK
 62
     4
 10
507.3271249204642
 20
496.0051022335295
 30
0.0
 11
508.0068941292696
 21
496.00510223352933
 31
0.0
  0
ARC
  5
228E
  8
TRACK
 62
     4
 10
507.32814194199011
 20
508.31497189954348
 30
0.0
 40
4.5566120881430141
 50
182.86062620985911
 51
194.085021655909
  0
ARC
  5
228F
  8
TRACK
 62
     4
 10
507.32814194199011
 20
508.24115492647849
 30
0.0
 40
4.5566120881430141
 50
2.8606262098434692
 51
157.88513951296389
  0
LINE
  5
22C5
  8
TRACK
 62
     4
 10
500.86228485924022
 20
506.30253697245649
 30
0.0
 11
500.86228485924022
 21
507.88742423684653
 31
0.0
  0
LINE
  5
22C6
  8
TRACK
 62
     4
 10
500.42379779573139
 20
506.12090968382591
 30
0.0
 11
500.42379779573139
 21
507.88742423684653
 31
0.0
  0
LINE
  5
22C7
  8
TRACK
 62
     4
 10
500.90987837934398
 20
505.6348291002131
 30
0.0
 11
500.42379779573139
 21
506.12090968382591
 31
0.0
  0
LINE
  5
22C8
  8
TRACK
 62
     4
 10
501.34836544285292
 20
505.81645638884368
 30
0.0
 11
500.86228485924022
 21
506.30253697245649
 31
0.0
  0
LINE
  5
22C9
  8
TRACK
 62
     4
 10
501.34836544285292
 20
504.92021001910132
 30
0.0
 11
501.34836544285292
 21
505.81645638884368
 31
0.0
  0
LINE
  5
22CA
  8
TRACK
 62
     4
 10
500.90987837934409
 20
504.92021001910132
 30
0.0
 11
500.90987837934398
 21
505.6348291002131
 31
0.0
  0
LINE
  5
22D2
  8
TRACK
 62
     4
 10
498.44070783563723
 20
508.75582325715777
 30
0.0
 11
498.44070783563723
 21
506.66745232939718
 31
0.0
  0
LINE
  5
22D3
  8
TRACK
 62
     4
 10
498.87950005034719
 20
506.66745232939718
 30
0.0
 11
498.87950005034719
 21
508.31688875787
 31
0.0
  0
LINE
  5
22E4
  8
TRACK
 62
     4
 10
498.44070783563723
 20
508.75582325715777
 30
0.0
 11
501.86517412603041
 21
508.75582325715777
 31
0.0
  0
LINE
  5
22E5
  8
TRACK
 62
     4
 10
498.87950005034719
 20
508.31688875787
 30
0.0
 11
501.42623962674247
 21
508.31688875787
 31
0.0
  0
LINE
  5
22E7
  8
TRACK
 62
     4
 10
501.42623962674247
 20
508.31688875787
 30
0.0
 11
501.42623962674247
 21
506.7671336382881
 31
0.0
  0
LINE
  5
22E8
  8
TRACK
 62
     4
 10
501.86517412603041
 20
508.75582325715777
 30
0.0
 11
501.86517412603041
 21
507.20606813757593
 31
0.0
  0
LINE
  5
22E9
  8
TRACK
 62
     4
 10
501.86517412603041
 20
507.20606813757593
 30
0.0
 11
502.9085213509772
 21
507.20606813757593
 31
0.0
  0
LINE
  5
22EA
  8
TRACK
 62
     4
 10
501.42623962674247
 20
506.7671336382881
 30
0.0
 11
503.04247858157498
 21
506.7671336382881
 31
0.0
  0
LINE
  5
22F0
  8
TRACK
 62
     4
 10
496.09282505087549
 20
510.53786868837648
 30
0.0
 11
496.09282505087549
 21
508.58750597090801
 31
0.0
  0
LINE
  5
22F1
  8
TRACK
 62
     4
 10
496.86688894870213
 20
509.95655788700321
 30
0.0
 11
498.43847065674157
 21
509.95655788700321
 31
0.0
  0
LINE
  5
22F2
  8
TRACK
 62
     4
 10
496.86688894870213
 20
510.53786868837648
 30
0.0
 11
496.86688894870213
 21
509.95655788700321
 31
0.0
  0
LINE
  5
22F3
  8
TRACK
 62
     4
 10
496.86688894870218
 20
509.18249398917652
 30
0.0
 11
502.86982449133131
 21
509.18249398917652
 31
0.0
  0
LINE
  5
22F8
  8
TRACK
 62
     4
 10
496.86688894870218
 20
509.18249398917652
 30
0.0
 11
496.86688894870213
 21
508.58750597090801
 31
0.0
  0
ARC
  5
22FB
  8
TRACK
 62
     4
 10
507.32814194199011
 20
508.24115492647849
 30
0.0
 40
4.5566120881430141
 50
168.07755488153089
 51
177.1393737901565
  0
LINE
  5
22FD
  8
TRACK
 62
     4
 10
498.43847065674157
 20
511.95725176039002
 30
0.0
 11
498.43847065674157
 21
509.95655788700321
 31
0.0
  0
LINE
  5
22FE
  8
TRACK
 62
     4
 10
498.8817372292425
 20
509.95655788700321
 30
0.0
 11
498.8817372292425
 21
511.95725176039002
 31
0.0
  0
LINE
  5
22FF
  8
TRACK
 62
     4
 10
499.09944113448131
 20
512.83552483002416
 30
0.0
 11
499.09944113448131
 21
510.7328052714318
 31
0.0
  0
LINE
  5
2301
  8
TRACK
 62
     4
 10
499.54270770698213
 20
510.7328052714318
 30
0.0
 11
499.54270770698213
 21
513.01913181861698
 31
0.0
  0
LINE
  5
2305
  8
TRACK
 62
     4
 10
500.42140804123522
 20
511.95725176039002
 30
0.0
 11
500.42140804123522
 21
509.95655788700321
 31
0.0
  0
LINE
  5
2307
  8
TRACK
 62
     4
 10
500.86467461373638
 20
509.95655788700321
 30
0.0
 11
500.86467461373638
 21
511.95725176039002
 31
0.0
  0
LINE
  5
230B
  8
TRACK
 62
     4
 10
498.93322903357188
 20
513.62861066799235
 30
0.0
 11
499.54270770698213
 21
513.01913181861698
 31
0.0
  0
LINE
  5
230C
  8
TRACK
 62
     4
 10
498.61979216778849
 20
513.31517393519835
 30
0.0
 11
499.09944113448131
 21
512.83552483002416
 31
0.0
  0
LINE
  5
230D
  8
TRACK
 62
     4
 10
498.8817372292425
 20
509.95655788700321
 30
0.0
 11
500.42140804123551
 21
509.95655788700321
 31
0.0
  0
LINE
  5
230E
  8
TRACK
 62
     4
 10
500.86467461373638
 20
509.95655788700321
 30
0.0
 11
503.10675515506398
 21
509.95655788700321
 31
0.0
  0
LINE
  5
2310
  8
TRACK
 62
     4
 10
500.56098026329329
 20
513.29952777715721
 30
0.0
 11
500.56098026329317
 21
513.54799436230292
 31
0.0
  0
LINE
  5
2324
  8
TRACK
 62
     4
 10
497.0612693690839
 20
513.31517393519835
 30
0.0
 11
498.61979216778849
 21
513.31517393519835
 31
0.0
  0
LINE
  5
2325
  8
TRACK
 62
     4
 10
498.93322903357188
 20
513.62861066799235
 30
0.0
 11
498.93322903357188
 21
515.60823208666989
 31
0.0
  0
LINE
  5
2326
  8
TRACK
 62
     4
 10
498.1591651357453
 20
514.08923783302487
 30
0.0
 11
498.1591651357453
 21
515.92885985129305
 31
0.0
  0
LINE
  5
2327
  8
TRACK
 62
     4
 10
497.0612693690839
 20
514.08923783302487
 30
0.0
 11
498.1591651357453
 21
514.08923783302487
 31
0.0
  0
LINE
  5
2328
  8
TRACK
 62
     4
 10
498.93322903357188
 20
515.60823208666989
 30
0.0
 11
500.7728508281221
 21
517.44785388122023
 31
0.0
  0
LINE
  5
2329
  8
TRACK
 62
     4
 10
498.1591651357453
 20
515.92885985129305
 30
0.0
 11
500.45222306349888
 21
518.22191777904663
 31
0.0
  0
LINE
  5
232A
  8
TRACK
 62
     4
 10
495.8984446304936
 20
513.12079351481634
 30
0.0
 11
497.0612693690839
 21
513.12079351481634
 31
0.0
  0
LINE
  5
237C
  8
TRACK
 62
     4
 10
511.76914585646108
 20
519.04723343190722
 30
0.0
 11
510.09703919936908
 21
519.04723343190722
 31
0.0
  0
LINE
  5
237E
  8
TRACK
 62
     4
 10
510.09703919936908
 20
516.62253822835964
 30
0.0
 11
511.76914585646108
 21
516.62253822835964
 31
0.0
  0
LINE
  5
2380
  8
TRACK
 62
     4
 10
500.45222306349888
 20
518.22191777904663
 30
0.0
 11
504.28919518042272
 21
518.22191777904663
 31
0.0
  0
LINE
  5
2381
  8
TRACK
 62
     4
 10
500.7728508281221
 20
517.44785388122023
 30
0.0
 11
504.28919518042272
 21
517.44785388122023
 31
0.0
  0
LINE
  5
23AB
  8
TRACK
 62
     4
 10
507.71517389090337
 20
503.77482652826609
 30
0.0
 11
507.71517389090349
 21
501.62728582083849
 31
0.0
  0
LINE
  5
23AC
  8
TRACK
 62
     4
 10
506.94110999307679
 20
503.77482652826609
 30
0.0
 11
506.94110999307679
 21
501.62728582083849
 31
0.0
  0
LINE
  5
2DC1
  8
TRACK
 62
     4
 10
509.96461398537502
 20
519.77197782611211
 30
0.0
 11
509.96461398537502
 21
523.54460214116
 31
0.0
  0
LINE
  5
2DC2
  8
TRACK
 62
     4
 10
508.4216202825578
 20
519.77197782611211
 30
0.0
 11
508.4216202825578
 21
523.72641581832454
 31
0.0
  0
ARC
  5
2E30
  8
TRACK
 62
     4
 10
507.32814194199011
 20
508.31497189954348
 30
0.0
 40
4.5566120881430141
 50
274.8724903214009
 51
357.13937379014078
  0
ARC
  5
2E31
  8
TRACK
 62
     4
 10
507.32814194199011
 20
508.31497189954348
 30
0.0
 40
4.5566120881430141
 50
199.85802443701371
 51
265.1275096785991
  0
LINE
  5
2EAC
  8
TRACK
 62
     4
 10
504.74516610787151
 20
498.58802728368721
 30
0.0
 11
505.26281887864633
 21
498.58802728368721
 31
0.0
  0
LINE
  5
2EAD
  8
TRACK
 62
     4
 10
504.74516610787151
 20
499.37103989709578
 30
0.0
 11
505.2628188786461
 21
499.37103989709573
 31
0.0
  0
LINE
  5
4092
  8
TRACK
 62
     4
 10
511.87907598543211
 20
508.46855997051028
 30
0.0
 11
502.777207898548
 21
508.46855997051028
 31
0.0
  0
LINE
  5
4093
  8
TRACK
 62
     4
 10
511.87907598543211
 20
508.08756685551032
 30
0.0
 11
502.777207898548
 21
508.08756685551032
 31
0.0
  0
LINE
  5
42B2
  8
TRACK
 62
     4
 10
502.03534112403281
 20
515.12240776360079
 30
0.0
 11
512.62094275994752
 21
515.12240776360102
 31
0.0
  0
LINE
  5
42C9
  8
TRACK
 62
     4
 10
501.18067881733481
 20
513.54799442068293
 30
0.0
 11
501.18067881733521
 21
512.92732832432057
 31
0.0
  0
LINE
  5
42D5
  8
TRACK
 62
     4
 10
514.17595084400148
 20
513.57202127319783
 30
0.0
 11
514.17595084400148
 21
510.1357339633276
 31
0.0
  0
LINE
  5
42D6
  8
TRACK
 62
     4
 10
513.39894128079959
 20
513.570691829917
 30
0.0
 11
513.39894128079959
 21
509.80825294924853
 31
0.0
  0
LINE
  5
42DA
  8
TRACK
 62
     4
 10
514.17196763025163
 20
515.9000597994584
 30
0.0
 11
514.17196763025163
 21
516.6214196389119
 31
0.0
  0
LINE
  5
42E8
  8
TRACK
 62
     4
 10
501.18067881733521
 20
512.92732832432057
 30
0.0
 11
500.81206683252663
 21
512.92732832432057
 31
0.0
  0
LINE
  5
42E9
  8
TRACK
 62
     4
 10
500.81206683252663
 20
512.92732832432057
 30
0.0
 11
500.20367818472158
 21
512.31893982965448
 31
0.0
  0
LINE
  5
42EA
  8
TRACK
 62
     4
 10
500.20367818472158
 20
512.31893982965448
 30
0.0
 11
500.20367818472158
 21
510.7328052714318
 31
0.0
  0
ARC
  5
42F2
  8
TRACK
 62
     4
 10
500.87082942845439
 20
514.73537581468747
 30
0.0
 40
1.2271435199755421
 50
284.62528886201039
 51
341.4449450750447
  0
LINE
  5
42F3
  8
TRACK
 62
     4
 10
512.62209991403574
 20
514.34487942621172
 30
0.0
 11
502.03418396994442
 21
514.34487942621172
 31
0.0
  0
LINE
  5
4305
  8
TRACK
 62
     4
 10
513.39394803696246
 20
515.89839083730863
 30
0.0
 11
513.39394803696246
 21
516.6214196389119
 31
0.0
  0
LINE
  5
430E
  8
TRACK
 62
     4
 10
513.393948036962
 20
496.55978543754321
 30
0.0
 11
513.39394803696246
 21
499.3662734636344
 31
0.0
  0
LINE
  5
4310
  8
TRACK
 62
     4
 10
514.59690188936725
 20
501.44985042374748
 30
0.0
 11
515.20199552732925
 21
501.79920139850969
 31
0.0
  0
LINE
  5
4311
  8
TRACK
 62
     4
 10
515.20199552732925
 20
501.79920139850969
 30
0.0
 11
515.20199552732925
 21
503.11226432037421
 31
0.0
  0
LINE
  5
4315
  8
TRACK
 62
     4
 10
515.20199552732925
 20
504.66191764831621
 30
0.0
 11
515.20199552732993
 21
508.00519870271819
 31
0.0
  0
LINE
  5
4317
  8
TRACK
 62
     4
 10
499.76041183593861
 20
510.7328052714318
 30
0.0
 11
499.76041183593861
 21
512.50254711212858
 31
0.0
  0
LINE
  5
4318
  8
TRACK
 62
     4
 10
499.76041183593861
 20
512.50254711212858
 30
0.0
 11
500.56098026329329
 21
513.30311533797044
 31
0.0
  0
LINE
  5
4331
  8
TRACK
 62
     4
 10
499.41188806504681
 20
505.9924797963867
 30
0.0
 11
500.20128843022542
 21
505.9924797963867
 31
0.0
  0
LINE
  5
4332
  8
TRACK
 62
     4
 10
500.20128843022542
 20
505.9924797963867
 30
0.0
 11
500.20128843022542
 21
507.88742423684653
 31
0.0
  0
LINE
  5
4334
  8
TRACK
 62
     4
 10
499.76280136671681
 20
507.88742423684653
 30
0.0
 11
499.76280136671681
 21
506.43096685989559
 31
0.0
  0
LINE
  5
4335
  8
TRACK
 62
     4
 10
499.76280136671681
 20
506.43096685989559
 30
0.0
 11
499.54031795248602
 21
506.43096685989559
 31
0.0
  0
LINE
  5
4336
  8
TRACK
 62
     4
 10
499.54031795248602
 20
506.43096685989559
 30
0.0
 11
499.54031795248602
 21
507.88742423684653
 31
0.0
  0
LINE
  5
4338
  8
TRACK
 62
     4
 10
499.10183088897719
 20
507.88742423684653
 30
0.0
 11
499.10183088897719
 21
506.30253697245632
 31
0.0
  0
LINE
  5
4339
  8
TRACK
 62
     4
 10
499.10183088897719
 20
506.30253697245632
 30
0.0
 11
498.84353851819219
 21
506.04424460167132
 31
0.0
  0
LINE
  5
433A
  8
TRACK
 62
     4
 10
498.84353851819219
 20
506.04424460167132
 30
0.0
 11
498.84353851819219
 21
504.92021001910132
 31
0.0
  0
LINE
  5
433E
  8
TRACK
 62
     4
 10
498.67575010103332
 20
503.37055691487711
 30
0.0
 11
498.67575010103332
 21
502.69617323352747
 31
0.0
  0
LINE
  5
433F
  8
TRACK
 62
     4
 10
498.67575010103332
 20
502.69617323352747
 30
0.0
 11
497.992170889492
 21
502.69617323352747
 31
0.0
  0
LINE
  5
4340
  8
TRACK
 62
     4
 10
497.992170889492
 20
502.69617323352747
 30
0.0
 11
497.25503948706302
 21
503.4333046359564
 31
0.0
  0
LINE
  5
4341
  8
TRACK
 62
     4
 10
497.25503948706302
 20
503.4333046359564
 30
0.0
 11
497.25503948706302
 21
504.09311491414729
 31
0.0
  0
LINE
  5
4346
  8
TRACK
 62
     4
 10
502.09158187993069
 20
500.65436714483923
 30
0.0
 11
503.19551277992929
 21
500.65436714483923
 31
0.0
  0
LINE
  5
434C
  8
TRACK
 62
     4
 10
503.19551277992929
 20
501.43737975824769
 30
0.0
 11
501.6962090140695
 21
501.43737975824769
 31
0.0
  0
LINE
  5
434E
  8
TRACK
 62
     4
 10
499.9195285664548
 20
501.3044709735297
 30
0.0
 11
499.44981399886001
 21
501.3044709735297
 31
0.0
  0
LINE
  5
434F
  8
TRACK
 62
     4
 10
499.44981399886001
 20
501.3044709735297
 30
0.0
 11
499.44981399886001
 21
503.37055691487711
 31
0.0
  0
LINE
  5
4353
  8
TRACK
 62
     4
 10
499.28202558170091
 20
504.92021001910132
 30
0.0
 11
499.28202558170091
 21
505.86261731304091
 31
0.0
  0
LINE
  5
4354
  8
TRACK
 62
     4
 10
499.28202558170091
 20
505.86261731304091
 30
0.0
 11
499.41188806504681
 21
505.9924797963867
 31
0.0
  0
LINE
  5
4356
  8
TRACK
 62
     4
 10
501.26233584701771
 20
499.3662734636344
 30
0.0
 11
501.26233584701771
 21
496.5587754074561
 31
0.0
  0
LINE
  5
435C
  8
TRACK
 62
     4
 10
502.58275152711792
 20
495.23835972735583
 30
0.0
 11
512.07252232677467
 21
495.23835972735588
 31
0.0
  0
LINE
  5
4376
  8
TRACK
 62
     4
 10
515.98500836445589
 20
501.3521461252177
 30
0.0
 11
515.98500836445589
 21
503.11226432037421
 31
0.0
  0
LINE
  5
4377
  8
TRACK
 62
     4
 10
515.98500836445589
 20
504.66191764831621
 30
0.0
 11
515.98500836445533
 21
508.32667644287392
 31
0.0
  0
LINE
  5
4383
  8
TRACK
 62
     4
 10
514.98749458660257
 20
500.77623127705391
 30
0.0
 11
515.98500836445589
 21
501.3521461252177
 31
0.0
  0
LINE
  5
4387
  8
TRACK
 62
     4
 10
514.17595084400159
 20
499.36593394476552
 30
0.0
 11
514.17595084400159
 21
496.23444087080611
 31
0.0
  0
ARC
  5
4394
  8
TRACK
 62
     4
 10
500.87082942845439
 20
514.73537581468747
 30
0.0
 40
1.2271435199755421
 50
18.384514525871491
 51
255.58087863972591
  0
ARC
  5
43F0
  8
TRACK
 62
     4
 10
500.87082942845439
 20
500.52928848625538
 30
0.0
 40
1.2271435199755421
 50
219.17541172373811
 51
251.44494507503919
  0
LINE
  5
43F1
  8
TRACK
 62
     4
 10
500.479323009891
 20
499.3662734636344
 30
0.0
 11
500.479323009891
 21
496.234440870806
 31
0.0
  0
LINE
  5
43F2
  8
TRACK
 62
     4
 10
499.9195285664548
 20
499.75410599898117
 30
0.0
 11
498.74169095040401
 21
499.75410599898117
 31
0.0
  0
LINE
  5
43FD
  8
TRACK
 62
     4
 10
495.7046745125146
 20
502.79112243687001
 30
0.0
 11
495.7046745125146
 21
504.09311491414729
 31
0.0
  0
POLYLINE
  5
4ACA
  8
TRACK
 62
     4
 66
     1
 10
0.0
 20
0.0
 30
0.0
  0
VERTEX
  5
5603
  8
TRACK
 62
     4
 10
497.25503948706302
 20
504.09311491414729
 30
0.0
  0
VERTEX
  5
5604
  8
TRACK
 62
     4
 10
497.69444178045802
 20
504.09311491414729
 30
0.0
  0
VERTEX
  5
5605
  8
TRACK
 62
     4
 10
497.69444178045802
 20
505.7474071394127
 30
0.0
  0
VERTEX
  5
5606
  8
TRACK
 62
     4
 10
495.26527221911959
 20
505.7474071394127
 30
0.0
  0
VERTEX
  5
5607
  8
TRACK
 62
     4
 10
495.26527221911959
 20
504.09311491414729
 30
0.0
  0
VERTEX
  5
5608
  8
TRACK
 62
     4
 10
495.7046745125146
 20
504.09311491414729
 30
0.0
  0
SEQEND
  5
5609
  8
TRACK
 62
     4
  0
POLYLINE
  5
4ACB
  8
TRACK
 62
     4
 66
     1
 10
0.0
 20
0.0
 30
0.0
  0
VERTEX
  5
560A
  8
TRACK
 62
     4
 10
496.09282505087549
 20
508.58750597090801
 30
0.0
  0
VERTEX
  5
560B
  8
TRACK
 62
     4
 10
495.26639080856711
 20
508.58750597090801
 30
0.0
  0
VERTEX
  5
560C
  8
TRACK
 62
     4
 10
495.26639080856711
 20
506.93545092453792
 30
0.0
  0
VERTEX
  5
560D
  8
TRACK
 62
     4
 10
497.69332319101022
 20
506.93545092453792
 30
0.0
  0
VERTEX
  5
560E
  8
TRACK
 62
     4
 10
497.69332319101022
 20
508.58750597090801
 30
0.0
  0
VERTEX
  5
560F
  8
TRACK
 62
     4
 10
496.86688894870213
 20
508.58750597090801
 30
0.0
  0
SEQEND
  5
5610
  8
TRACK
 62
     4
  0
POLYLINE
  5
4ACC
  8
TRACK
 62
     4
 66
     1
 10
0.0
 20
0.0
 30
0.0
  0
VERTEX
  5
5611
  8
TRACK
 62
     4
 10
496.86688894870213
 20
510.53786868837648
 30
0.0
  0
VERTEX
  5
5612
  8
TRACK
 62
     4
 10
497.0612693690839
 20
510.53786868837648
 30
0.0
  0
VERTEX
  5
5613
  8
TRACK
 62
     4
 10
497.0612693690839
 20
511.70069320324899
 30
0.0
  0
VERTEX
  5
5614
  8
TRACK
 62
     4
 10
495.8984446304936
 20
511.70069320324899
 30
0.0
  0
VERTEX
  5
5615
  8
TRACK
 62
     4
 10
495.8984446304936
 20
510.53786868837648
 30
0.0
  0
VERTEX
  5
5616
  8
TRACK
 62
     4
 10
496.09282505087549
 20
510.53786868837648
 30
0.0
  0
SEQEND
  5
5617
  8
TRACK
 62
     4
  0
POLYLINE
  5
4ACD
  8
TRACK
 62
     4
 66
     1
 10
0.0
 20
0.0
 30
0.0
  0
VERTEX
  5
5618
  8
TRACK
 62
     4
 10
497.0612693690839
 20
513.12079351481634
 30
0.0
  0
VERTEX
  5
5619
  8
TRACK
 62
     4
 10
497.0612693690839
 20
513.31517393519835
 30
0.0
  0
SEQEND
  5
561A
  8
TRACK
 62
     4
  0
POLYLINE
  5
4AD2
  8
TRACK
 62
     4
 66
     1
 10
0.0
 20
0.0
 30
0.0
  0
VERTEX
  5
561B
  8
TRACK
 62
     4
 10
498.8817372292425
 20
511.95725176039002
 30
0.0
  0
VERTEX
  5
561C
  8
TRACK
 62
     4
 10
498.43847065674157
 20
511.95725176039002
 30
0.0
  0
SEQEND
  5
561D
  8
TRACK
 62
     4
  0
POLYLINE
  5
4AD5
  8
TRACK
 62
     4
 66
     1
 10
0.0
 20
0.0
 30
0.0
  0
VERTEX
  5
561E
  8
TRACK
 62
     4
 10
500.86467461373638
 20
511.95725176039002
 30
0.0
  0
VERTEX
  5
561F
  8
TRACK
 62
     4
 10
500.42140804123522
 20
511.95725176039002
 30
0.0
  0
SEQEND
  5
5620
  8
TRACK
 62
     4
  0
POLYLINE
  5
4AD7
  8
TRACK
 62
     4
 66
     1
 10
0.0
 20
0.0
 30
0.0
  0
VERTEX
  5
5621
  8
TRACK
 62
     4
 10
499.54031795248602
 20
507.88742423684653
 30
0.0
  0
VERTEX
  5
5622
  8
TRACK
 62
     4
 10
499.10183088897719
 20
507.88742423684653
 30
0.0
  0
SEQEND
  5
5623
  8
TRACK
 62
     4
  0
POLYLINE
  5
4AD8
  8
TRACK
 62
     4
 66
     1
 10
0.0
 20
0.0
 30
0.0
  0
VERTEX
  5
5624
  8
TRACK
 62
     4
 10
500.20128843022542
 20
507.88742423684653
 30
0.0
  0
VERTEX
  5
5625
  8
TRACK
 62
     4
 10
499.76280136671681
 20
507.88742423684653
 30
0.0
  0
SEQEND
  5
5626
  8
TRACK
 62
     4
  0
POLYLINE
  5
4AD9
  8
TRACK
 62
     4
 66
     1
 10
0.0
 20
0.0
 30
0.0
  0
VERTEX
  5
5627
  8
TRACK
 62
     4
 10
500.86228485924022
 20
507.88742423684653
 30
0.0
  0
VERTEX
  5
5628
  8
TRACK
 62
     4
 10
500.42379779573139
 20
507.88742423684653
 30
0.0
  0
SEQEND
  5
5629
  8
TRACK
 62
     4
  0
POLYLINE
  5
4ADA
  8
TRACK
 62
     4
 66
     1
 10
0.0
 20
0.0
 30
0.0
  0
VERTEX
  5
562A
  8
TRACK
 62
     4
 10
499.44981399886001
 20
503.37055691487711
 30
0.0
  0
VERTEX
  5
562B
  8
TRACK
 62
     4
 10
499.51474297078897
 20
503.37055691487711
 30
0.0
  0
VERTEX
  5
562C
  8
TRACK
 62
     4
 10
499.51474297078897
 20
504.92021001910132
 30
0.0
  0
VERTEX
  5
562D
  8
TRACK
 62
     4
 10
499.28202558170091
 20
504.92021001910132
 30
0.0
  0
SEQEND
  5
562E
  8
TRACK
 62
     4
  0
POLYLINE
  5
4ADB
  8
TRACK
 62
     4
 66
     1
 10
0.0
 20
0.0
 30
0.0
  0
VERTEX
  5
562F
  8
TRACK
 62
     4
 10
500.90987837934409
 20
504.92021001910132
 30
0.0
  0
VERTEX
  5
5630
  8
TRACK
 62
     4
 10
500.67716099025608
 20
504.92021001910132
 30
0.0
  0
VERTEX
  5
5631
  8
TRACK
 62
     4
 10
500.67716099025608
 20
503.37055691487711
 30
0.0
  0
VERTEX
  5
5632
  8
TRACK
 62
     4
 10
501.58108305565878
 20
503.37055691487711
 30
0.0
  0
VERTEX
  5
5633
  8
TRACK
 62
     4
 10
501.58108305565878
 20
504.92021001910132
 30
0.0
  0
VERTEX
  5
5634
  8
TRACK
 62
     4
 10
501.34836544285292
 20
504.92021001910132
 30
0.0
  0
SEQEND
  5
5635
  8
TRACK
 62
     4
  0
POLYLINE
  5
4ADC
  8
TRACK
 62
     4
 66
     1
 10
0.0
 20
0.0
 30
0.0
  0
VERTEX
  5
5636
  8
TRACK
 62
     4
 10
503.19551277992929
 20
500.65436714483923
 30
0.0
  0
VERTEX
  5
5637
  8
TRACK
 62
     4
 10
503.19551277992929
 20
500.593912530701
 30
0.0
  0
VERTEX
  5
5638
  8
TRACK
 62
     4
 10
504.74516610787151
 20
500.593912530701
 30
0.0
  0
VERTEX
  5
5639
  8
TRACK
 62
     4
 10
504.74516610787151
 20
501.4978343723858
 30
0.0
  0
VERTEX
  5
563A
  8
TRACK
 62
     4
 10
503.19551277992929
 20
501.4978343723858
 30
0.0
  0
VERTEX
  5
563B
  8
TRACK
 62
     4
 10
503.19551277992929
 20
501.43737975824769
 30
0.0
  0
SEQEND
  5
563C
  8
TRACK
 62
     4
  0
POLYLINE
  5
4ADD
  8
TRACK
 62
     4
 66
     1
 10
0.0
 20
0.0
 30
0.0
  0
VERTEX
  5
563D
  8
TRACK
 62
     4
 10
504.74516610787151
 20
499.37103989709578
 30
0.0
  0
VERTEX
  5
563E
  8
TRACK
 62
     4
 10
504.74516610787151
 20
499.43149451123378
 30
0.0
  0
VERTEX
  5
563F
  8
TRACK
 62
     4
 10
503.19551277992929
 20
499.43149451123378
 30
0.0
  0
VERTEX
  5
5640
  8
TRACK
 62
     4
 10
503.19551277992929
 20
498.5275724458312
 30
0.0
  0
VERTEX
  5
5641
  8
TRACK
 62
     4
 10
504.74516610787151
 20
498.5275724458312
 30
0.0
  0
VERTEX
  5
5642
  8
TRACK
 62
     4
 10
504.74516610787151
 20
498.58802728368721
 30
0.0
  0
SEQEND
  5
5643
  8
TRACK
 62
     4
  0
POLYLINE
  5
4ADF
  8
TRACK
 62
     4
 66
     1
 10
0.0
 20
0.0
 30
0.0
  0
VERTEX
  5
5644
  8
TRACK
 62
     4
 10
510.49247913772518
 20
501.43737975824752
 30
0.0
  0
VERTEX
  5
5645
  8
TRACK
 62
     4
 10
510.49247913772518
 20
501.62728582083849
 30
0.0
  0
VERTEX
  5
5646
  8
TRACK
 62
     4
 10
509.32965462285267
 20
501.62728582083849
 30
0.0
  0
VERTEX
  5
5647
  8
TRACK
 62
     4
 10
509.32965462285267
 20
500.46446108224819
 30
0.0
  0
VERTEX
  5
5648
  8
TRACK
 62
     4
 10
510.49247913772518
 20
500.46446108224819
 30
0.0
  0
VERTEX
  5
5649
  8
TRACK
 62
     4
 10
510.49247913772518
 20
500.65436714483923
 30
0.0
  0
SEQEND
  5
564A
  8
TRACK
 62
     4
  0
POLYLINE
  5
4AE0
  8
TRACK
 62
     4
 66
     1
 10
0.0
 20
0.0
 30
0.0
  0
VERTEX
  5
564B
  8
TRACK
 62
     4
 10
508.4216202825578
 20
519.77197782611211
 30
0.0
  0
VERTEX
  5
564C
  8
TRACK
 62
     4
 10
508.28919506856369
 20
519.77197782611211
 30
0.0
  0
VERTEX
  5
564D
  8
TRACK
 62
     4
 10
508.28919506856369
 20
515.89779383415475
 30
0.0
  0
VERTEX
  5
564E
  8
TRACK
 62
     4
 10
510.09703919936908
 20
515.89779383415475
 30
0.0
  0
VERTEX
  5
564F
  8
TRACK
 62
     4
 10
510.09703919936908
 20
516.62253822835964
 30
0.0
  0
SEQEND
  5
5650
  8
TRACK
 62
     4
  0
POLYLINE
  5
4AE1
  8
TRACK
 62
     4
 66
     1
 10
0.0
 20
0.0
 30
0.0
  0
VERTEX
  5
5651
  8
TRACK
 62
     4
 10
514.17196763025163
 20
516.6214196389119
 30
0.0
  0
VERTEX
  5
5652
  8
TRACK
 62
     4
 10
514.61148209056944
 20
516.6214196389119
 30
0.0
  0
VERTEX
  5
5653
  8
TRACK
 62
     4
 10
514.61148209056944
 20
519.04835202135484
 30
0.0
  0
VERTEX
  5
5654
  8
TRACK
 62
     4
 10
512.95942682048178
 20
519.04835202135484
 30
0.0
  0
VERTEX
  5
5655
  8
TRACK
 62
     4
 10
512.95942682048178
 20
516.6214196389119
 30
0.0
  0
VERTEX
  5
5656
  8
TRACK
 62
     4
 10
513.39394803696246
 20
516.6214196389119
 30
0.0
  0
SEQEND
  5
5657
  8
TRACK
 62
     4
  0
POLYLINE
  5
4AE2
  8
TRACK
 62
     4
 66
     1
 10
0.0
 20
0.0
 30
0.0
  0
VERTEX
  5
5658
  8
TRACK
 62
     4
 10
510.11709058637348
 20
516.62253822835964
 30
0.0
  0
VERTEX
  5
5659
  8
TRACK
 62
     4
 10
510.11709058637348
 20
516.6214196389119
 30
0.0
  0
VERTEX
  5
565A
  8
TRACK
 62
     4
 10
511.76914585646108
 20
516.6214196389119
 30
0.0
  0
VERTEX
  5
565B
  8
TRACK
 62
     4
 10
511.76914585646108
 20
519.04835202135484
 30
0.0
  0
VERTEX
  5
565C
  8
TRACK
 62
     4
 10
510.11709058637348
 20
519.04835202135484
 30
0.0
  0
VERTEX
  5
565D
  8
TRACK
 62
     4
 10
510.11709058637348
 20
519.04723343190722
 30
0.0
  0
SEQEND
  5
565E
  8
TRACK
 62
     4
  0
ARC
  5
4AE3
  8
TRACK
 62
     4
 10
513.7854544555255
 20
514.73537581468759
 30
0.0
 40
1.2271435199755041
 50
108.6048066569478
 51
161.64100807957709
  0
POLYLINE
  5
4AE4
  8
TRACK
 62
     4
 66
     1
 10
0.0
 20
0.0
 30
0.0
  0
VERTEX
  5
565F
  8
TRACK
 62
     4
 10
504.28919518042272
 20
517.44785388122023
 30
0.0
  0
VERTEX
  5
5660
  8
TRACK
 62
     4
 10
504.28919518042272
 20
515.89779383415475
 30
0.0
  0
VERTEX
  5
5661
  8
TRACK
 62
     4
 10
506.0970390875101
 20
515.89779383415475
 30
0.0
  0
VERTEX
  5
5662
  8
TRACK
 62
     4
 10
506.0970390875101
 20
519.77197782611211
 30
0.0
  0
VERTEX
  5
5663
  8
TRACK
 62
     4
 10
504.28919518042272
 20
519.77197782611211
 30
0.0
  0
VERTEX
  5
5664
  8
TRACK
 62
     4
 10
504.28919518042272
 20
518.22191777904663
 30
0.0
  0
SEQEND
  5
5665
  8
TRACK
 62
     4
  0
POLYLINE
  5
4AE5
  8
TRACK
 62
     4
 66
     1
 10
0.0
 20
0.0
 30
0.0
  0
VERTEX
  5
5666
  8
TRACK
 62
     4
 10
505.2628188786461
 20
498.58802728368721
 30
0.0
  0
VERTEX
  5
5667
  8
TRACK
 62
     4
 10
505.2628188786461
 20
498.46396553477041
 30
0.0
  0
VERTEX
  5
5668
  8
TRACK
 62
     4
 10
507.3271249204642
 20
498.46396553477041
 30
0.0
  0
VERTEX
  5
5669
  8
TRACK
 62
     4
 10
507.3271249204642
 20
499.49510164601247
 30
0.0
  0
VERTEX
  5
566A
  8
TRACK
 62
     4
 10
505.2628188786461
 20
499.49510164601247
 30
0.0
  0
VERTEX
  5
566B
  8
TRACK
 62
     4
 10
505.2628188786461
 20
499.37103989709573
 30
0.0
  0
SEQEND
  5
566C
  8
TRACK
 62
     4
  0
POLYLINE
  5
4AE6
  8
TRACK
 62
     4
 66
     1
 10
0.0
 20
0.0
 30
0.0
  0
VERTEX
  5
566D
  8
TRACK
 62
     4
 10
507.32712492046409
 20
496.78811484693802
 30
0.0
  0
VERTEX
  5
566E
  8
TRACK
 62
     4
 10
507.32712492046409
 20
496.91217648399572
 30
0.0
  0
VERTEX
  5
566F
  8
TRACK
 62
     4
 10
505.2628188786461
 20
496.91217648399572
 30
0.0
  0
VERTEX
  5
5670
  8
TRACK
 62
     4
 10
505.2628188786461
 20
495.88104037275372
 30
0.0
  0
VERTEX
  5
5671
  8
TRACK
 62
     4
 10
507.32712492046409
 20
495.88104037275372
 30
0.0
  0
VERTEX
  5
5672
  8
TRACK
 62
     4
 10
507.32712492046409
 20
496.0051022335295
 30
0.0
  0
SEQEND
  5
5673
  8
TRACK
 62
     4
  0
POLYLINE
  5
4AE7
  8
TRACK
 62
     4
 66
     1
 10
0.0
 20
0.0
 30
0.0
  0
VERTEX
  5
5674
  8
TRACK
 62
     4
 10
510.55273061601957
 20
498.68564949312281
 30
0.0
  0
VERTEX
  5
5675
  8
TRACK
 62
     4
 10
509.94665849491349
 20
498.68564949312281
 30
0.0
  0
VERTEX
  5
5676
  8
TRACK
 62
     4
 10
509.94665849491349
 20
498.0795773720169
 30
0.0
  0
SEQEND
  5
5677
  8
TRACK
 62
     4
  0
POLYLINE
  5
4AE8
  8
TRACK
 62
     4
 66
     1
 10
0.0
 20
0.0
 30
0.0
  0
VERTEX
  5
5678
  8
TRACK
 62
     4
 10
513.0752008283215
 20
503.495584565782
 30
0.0
  0
VERTEX
  5
5679
  8
TRACK
 62
     4
 10
513.0752008283215
 20
503.11226432037421
 30
0.0
  0
VERTEX
  5
567A
  8
TRACK
 62
     4
 10
513.97912289372414
 20
503.11226432037421
 30
0.0
  0
VERTEX
  5
567B
  8
TRACK
 62
     4
 10
513.97912289372414
 20
504.66191764831621
 30
0.0
  0
VERTEX
  5
567C
  8
TRACK
 62
     4
 10
513.0752008283215
 20
504.66191764831621
 30
0.0
  0
VERTEX
  5
567D
  8
TRACK
 62
     4
 10
513.0752008283215
 20
504.27859717919051
 30
0.0
  0
SEQEND
  5
567E
  8
TRACK
 62
     4
  0
ARC
  5
4AEA
  8
TRACK
 62
     4
 10
500.87082942845439
 20
500.52928848625538
 30
0.0
 40
1.2271435199757901
 50
47.731767322246988
 51
140.8245882762682
  0
CIRCLE
  5
4AEC
  8
TRACK
 62
     4
 10
507.32814194198909
 20
508.27806341301027
 30
0.0
 40
16.66844878125
  0
ARC
  5
4AF2
  8
TRACK
 62
     4
 10
513.78545445552572
 20
500.52928848625538
 30
0.0
 40
1.2271435199757901
 50
288.55505492495189
 51
11.609119340087791
  0
LINE
  5
4AF7
  8
TRACK
 62
     4
 10
498.74169095040401
 20
499.75410599898117
 30
0.0
 11
495.7046745125146
 21
502.79112243687001
 31
0.0
  0
LINE
  5
4AFA
  8
TRACK
 62
     4
 10
515.98500836445533
 20
508.32667644287392
 30
0.0
 11
514.17595084400148
 21
510.1357339633276
 31
0.0
  0
LINE
  5
4AFB
  8
TRACK
 62
     4
 10
515.20199552732993
 20
508.00519870271808
 30
0.0
 11
513.39894128079959
 21
509.80825294924853
 31
0.0
  0
POLYLINE
  5
4AFC
  8
TRACK
 62
     4
 66
     1
 10
0.0
 20
0.0
 30
0.0
  0
VERTEX
  5
567F
  8
TRACK
 62
     4
 10
515.20199552732925
 20
504.66191764831621
 30
0.0
  0
VERTEX
  5
5680
  8
TRACK
 62
     4
 10
515.14154091319131
 20
504.66191764831621
 30
0.0
  0
VERTEX
  5
5681
  8
TRACK
 62
     4
 10
515.14154091319131
 20
503.11226432037421
 30
0.0
  0
VERTEX
  5
5682
  8
TRACK
 62
     4
 10
515.20199552732925
 20
503.11226432037421
 30
0.0
  0
SEQEND
  5
5683
  8
TRACK
 62
     4
  0
LINE
  5
4AFE
  8
TRACK
 62
     4
 10
502.25841699046782
 20
494.45534689022929
 30
0.0
 11
512.396856863425
 21
494.45534689022941
 31
0.0
  0
LINE
  5
4B01
  8
TRACK
 62
     4
 10
512.396856863425
 20
494.45534689022941
 30
0.0
 11
514.17595084400159
 21
496.23444087080611
 31
0.0
  0
LINE
  5
4B02
  8
TRACK
 62
     4
 10
502.25841699046782
 20
494.45534689022929
 30
0.0
 11
500.479323009891
 21
496.234440870806
 31
0.0
  0
LINE
  5
4B03
  8
TRACK
 62
     4
 10
502.58275152711792
 20
495.23835972735583
 30
0.0
 11
501.26233584701771
 21
496.5587754074561
 31
0.0
  0
LINE
  5
4B04
  8
TRACK
 62
     4
 10
512.07252232677467
 20
495.23835972735588
 30
0.0
 11
513.393948036962
 21
496.55978543754321
 31
0.0
  0
ARC
  5
4B09
  8
TRACK
 62
     4
 10
507.32814194198909
 20
508.27806341301027
 30
0.0
 40
15.48319216931676
 50
85.950196080120037
 51
80.195922986986517
  0
ARC
  5
4B1E
  8
TRACK
 62
     4
 10
513.78545445552572
 20
500.52928848625538
 30
0.0
 40
1.2271435199757901
 50
48.604801146058911
 51
251.39519334303969
  0
ARC
  5
4B20
  8
TRACK
 62
     4
 10
500.87082942845439
 20
500.52928848625538
 30
0.0
 40
1.2271435199757901
 50
288.60480665696292
 51
5.8501278094621698
  0
POLYLINE
  5
4B24
  8
TRACK
 62
     4
 66
     1
 10
0.0
 20
0.0
 30
0.0
  0
VERTEX
  5
5684
  8
TRACK
 62
     4
 10
497.0612693690839
 20
514.08923783302487
 30
0.0
  0
VERTEX
  5
5685
  8
TRACK
 62
     4
 10
497.0612693690839
 20
514.28361825340664
 30
0.0
  0
VERTEX
  5
5686
  8
TRACK
 62
     4
 10
495.8984446304936
 20
514.28361825340664
 30
0.0
  0
VERTEX
  5
5687
  8
TRACK
 62
     4
 10
495.8984446304936
 20
513.12079351481634
 30
0.0
  0
SEQEND
  5
5688
  8
TRACK
 62
     4
  0
POLYLINE
  5
4B25
  8
TRACK
 62
     4
 66
     1
 10
0.0
 20
0.0
 30
0.0
  0
VERTEX
  5
5689
  8
TRACK
 62
     4
 10
510.09703919936908
 20
519.04723343190722
 30
0.0
  0
VERTEX
  5
568A
  8
TRACK
 62
     4
 10
510.09703919936908
 20
519.77197782611211
 30
0.0
  0
VERTEX
  5
568B
  8
TRACK
 62
     4
 10
509.96461398537502
 20
519.77197782611211
 30
0.0
  0
SEQEND
  5
568C
  8
TRACK
 62
     4
  0
ARC
  5
4B28
  8
TRACK
 62
     4
 10
513.7854544555255
 20
514.73537581468781
 30
0.0
 40
1.2271435199757901
 50
198.55505492496371
 51
251.64100807958721
  0
ARC
  5
4B29
  8
TRACK
 62
     4
 10
513.7854544555255
 20
514.73537581468781
 30
0.0
 40
1.2271435199757901
 50
288.55505492496371
 51
71.641008079575485
  0
POLYLINE
  5
4B32
  8
TRACK
 62
     4
 66
     1
 10
0.0
 20
0.0
 30
0.0
  0
VERTEX
  5
568D
  8
TRACK
 62
     4
 10
498.44070783563723
 20
506.66745232939718
 30
0.0
  0
VERTEX
  5
568E
  8
TRACK
 62
     4
 10
498.87950005034719
 20
506.66745232939718
 30
0.0
  0
SEQEND
  5
568F
  8
TRACK
 62
     4
  0
POLYLINE
  5
4B34
  8
TRACK
 62
     4
 66
     1
 10
0.0
 20
0.0
 30
0.0
  0
VERTEX
  5
5690
  8
TRACK
 62
     4
 10
499.76041183593861
 20
510.7328052714318
 30
0.0
  0
VERTEX
  5
5691
  8
TRACK
 62
     4
 10
500.20367818472158
 20
510.7328052714318
 30
0.0
  0
SEQEND
  5
5692
  8
TRACK
 62
     4
  0
POLYLINE
  5
4B35
  8
TRACK
 62
     4
 66
     1
 10
0.0
 20
0.0
 30
0.0
  0
VERTEX
  5
5693
  8
TRACK
 62
     4
 10
499.09944113448131
 20
510.7328052714318
 30
0.0
  0
VERTEX
  5
5694
  8
TRACK
 62
     4
 10
499.54270770698213
 20
510.7328052714318
 30
0.0
  0
SEQEND
  5
5695
  8
TRACK
 62
     4
  0
CIRCLE
  5
4C11
  8
TRACK
 62
     4
 10
500.87082942845439
 20
514.73537581468747
 30
0.0
 40
0.2
  0
CIRCLE
  5
4C12
  8
TRACK
 62
     4
 10
507.32814194199011
 20
509.6957034904861
 30
0.0
 40
0.2
  0
CIRCLE
  5
4C13
  8
TRACK
 62
     4
 10
507.32814194199011
 20
506.86042333553451
 30
0.0
 40
0.2
  0
CIRCLE
  5
4C14
  8
TRACK
 62
     4
 10
513.7854544555255
 20
514.73537581468781
 30
0.0
 40
0.2
  0
CIRCLE
  5
4C15
  8
TRACK
 62
     4
 10
513.78545445552572
 20
500.52928848625538
 30
0.0
 40
0.2
  0
CIRCLE
  5
4C16
  8
TRACK
 62
     4
 10
500.87082942845439
 20
500.52928848625538
 30
0.0
 40
0.2
  0
POLYLINE
  5
4C53
  8
TRACK
 62
     4
 66
     1
 10
0.0
 20
0.0
 30
0.0
  0
VERTEX
  5
5696
  8
TRACK
 62
     4
 10
515.98500836445589
 20
503.11226432037421
 30
0.0
  0
VERTEX
  5
5697
  8
TRACK
 62
     4
 10
516.04546297859395
 20
503.11226432037421
 30
0.0
  0
VERTEX
  5
5698
  8
TRACK
 62
     4
 10
516.04546297859395
 20
504.66191764831621
 30
0.0
  0
VERTEX
  5
5699
  8
TRACK
 62
     4
 10
515.98500836445589
 20
504.66191764831621
 30
0.0
  0
SEQEND
  5
569A
  8
TRACK
 62
     4
  0
LINE
  5
4C54
  8
TRACK
 62
     4
 10
507.90955419942628
 20
501.62728582083849
 30
0.0
 11
507.71517389090349
 21
501.62728582083849
 31
0.0
  0
LINE
  5
4C55
  8
TRACK
 62
     4
 10
506.74672968455383
 20
501.62728582083849
 30
0.0
 11
506.74672968455383
 21
500.46446108224819
 31
0.0
  0
LINE
  5
4C56
  8
TRACK
 62
     4
 10
506.74672968455383
 20
500.46446108224819
 30
0.0
 11
507.90955419942628
 21
500.46446108224819
 31
0.0
  0
LINE
  5
4C57
  8
TRACK
 62
     4
 10
507.90955419942628
 20
500.46446108224819
 30
0.0
 11
507.90955419942628
 21
501.62728582083849
 31
0.0
  0
LINE
  5
4C58
  8
TRACK
 62
     4
 10
506.94110999307679
 20
501.62728582083849
 30
0.0
 11
506.74672968455383
 21
501.62728582083849
 31
0.0
  0
POLYLINE
  5
4C59
  8
TRACK
 62
     4
 66
     1
 10
0.0
 20
0.0
 30
0.0
  0
VERTEX
  5
569B
  8
TRACK
 62
     4
 10
498.84353851819219
 20
504.92021001910132
 30
0.0
  0
VERTEX
  5
569C
  8
TRACK
 62
     4
 10
498.61082090538622
 20
504.92021001910132
 30
0.0
  0
VERTEX
  5
569D
  8
TRACK
 62
     4
 10
498.61082090538622
 20
503.37055691487711
 30
0.0
  0
VERTEX
  5
569E
  8
TRACK
 62
     4
 10
498.67575010103332
 20
503.37055691487711
 30
0.0
  0
SEQEND
  5
569F
  8
TRACK
 62
     4
  0
POLYLINE
  5
502E
  8
TRACK
 62
     4
 66
     1
 10
0.0
 20
0.0
 30
0.0
  0
VERTEX
  5
56A0
  8
TRACK
 62
     4
 10
509.94665849491349
 20
497.29656475860833
 30
0.0
  0
VERTEX
  5
56A1
  8
TRACK
 62
     4
 10
509.94665849491349
 20
496.6904924137844
 30
0.0
  0
VERTEX
  5
56A2
  8
TRACK
 62
     4
 10
511.94181535053428
 20
496.6904924137844
 30
0.0
  0
VERTEX
  5
56A3
  8
TRACK
 62
     4
 10
511.94181535053428
 20
498.68564949312281
 30
0.0
  0
VERTEX
  5
56A4
  8
TRACK
 62
     4
 10
511.33574322942798
 20
498.68564949312281
 30
0.0
  0
SEQEND
  5
56A5
  8
TRACK
 62
     4
  0
VIEWPORT
  5
55A7
 67
     1
  8
0
  6
CONTINUOUS
 10
5.2499996395561652
 20
3.9999998836066779
 30
0.0
 40
13.257829835972579
 41
8.9929997457669497
 68
     1
 69
     1
1001
ACAD
1000
MVIEW
1002
{
1070
    16
1010
0.0
1020
0.0
1030
0.0
1010
0.0
1020
0.0
1030
1.0
1040
0.0
1040
8.9929997457669497
1040
5.2499996395561652
1040
3.9999998836066779
1040
50.0
1040
0.0
1040
0.0
1070
     0
1070
   100
1070
     1
1070
     1
1070
     0
1070
     0
1070
     0
1070
     0
1040
0.0
1040
0.0
1040
0.0
1040
10.0
1040
10.0
1040
10.0
1040
10.0
1070
     0
1002
{
1002
}
1002
}
  0
ENDSEC
  0
EOF
