  0
SECTION
  2
HEADER
  9
$ACADVER
  1
AC1009
  9
$EXTMIN
 10
5.503339
 20
8.741359
 30
0.000000
  9
$EXTMAX
 10
203.454025
 20
288.692663
 30
0.000000
  9
$LIMMIN
 10
5.503339
 20
8.741359
  9
$LIMMAX
 10
203.454025
 20
288.692663
  0
ENDSEC
  0
SECTION
  2
TABLES
  0
TABLE
  2
VPORT
 70
1
  0
VPORT
  2
*ACTIVE
 70
0
 10
0.000000
 20
0.000000
 11
1.000000
 21
1.000000
 12
104.478682
 22
148.717011
 13
0.000000
 23
0.000000
 14
1.000000
 24
1.000000
 15
0.000000
 25
0.000000
 16
0.000000
 26
0.000000
 36
1.000000
 17
0.000000
 27
0.000000
 37
0.000000
 40
148.717011
 41
1.750000
 42
50.000000
 43
0.000000
 44
0.000000
 50
0.000000
 51
0.000000
 71
0
 72
100
 73
1
 74
1
 75
0
 76
0
 77
0
 78
0
  0
ENDTAB
  0
TABLE
  2
LTYPE
 70
1
  0
LTYPE
  2
Continuous
 70
0
  3
Solid line
 72
65
 73
0
 40
0.000000
  0
ENDTAB
  0
TABLE
  2
LAYER
 70
91
  0
LAYER
  2
1
 70
0
 62
7
  6
Continuous
  0
ENDTAB
  0
ENDSEC
  0
SECTION
  2
ENTITIES
  0
POLYLINE
  8
1
 66
1
 10
0.000000
 20
0.000000
 30
0.000000
 40
0.000000
 41
0.000000
  0
VERTEX
  8
1
 10
203.454025
 20
8.741359
  0
VERTEX
  8
1
 10
203.454025
 20
288.692663
  0
VERTEX
  8
1
 10
5.503339
 20
288.692663
  0
VERTEX
  8
1
 10
5.503339
 20
8.741359
  0
VERTEX
  8
1
 10
203.454025
 20
8.741359
  0
SEQEND
  0
POLYLINE
  8
1
 66
1
 10
0.000000
 20
0.000000
 30
0.000000
 40
0.000000
 41
0.000000
  0
VERTEX
  8
1
 10
59.803309
 20
114.085218
  0
VERTEX
  8
1
 10
59.803309
 20
115.282307
  0
VERTEX
  8
1
 10
58.606220
 20
115.282307
  0
VERTEX
  8
1
 10
58.606220
 20
122.464843
  0
VERTEX
  8
1
 10
61.000399
 20
122.464843
  0
VERTEX
  8
1
 10
61.000399
 20
115.282307
  0
VERTEX
  8
1
 10
59.803309
 20
115.282307
  0
SEQEND
  0
POLYLINE
  8
1
 66
1
 10
0.000000
 20
0.000000
 30
0.000000
 40
0.000000
 41
0.000000
  0
VERTEX
  8
1
 10
59.803309
 20
123.661932
  0
VERTEX
  8
1
 10
59.803309
 20
122.464843
  0
SEQEND
  0
POLYLINE
  8
1
 66
1
 10
0.000000
 20
0.000000
 30
0.000000
 40
0.000000
 41
0.000000
  0
VERTEX
  8
1
 10
57.409131
 20
115.282307
  0
VERTEX
  8
1
 10
57.409131
 20
122.464843
  0
SEQEND
  0
POLYLINE
  8
1
 66
1
 10
0.000000
 20
0.000000
 30
0.000000
 40
0.000000
 41
0.000000
  0
VERTEX
  8
1
 10
70.577113
 20
87.749253
  0
VERTEX
  8
1
 10
70.577113
 20
82.960896
  0
SEQEND
  0
POLYLINE
  8
1
 66
1
 10
0.000000
 20
0.000000
 30
0.000000
 40
0.000000
 41
0.000000
  0
VERTEX
  8
1
 10
72.971292
 20
87.749253
  0
VERTEX
  8
1
 10
72.971292
 20
82.960896
  0
SEQEND
  0
POLYLINE
  8
1
 66
1
 10
0.000000
 20
0.000000
 30
0.000000
 40
0.000000
 41
0.000000
  0
VERTEX
  8
1
 10
72.971292
 20
85.355074
  0
VERTEX
  8
1
 10
74.168381
 20
85.355074
  0
SEQEND
  0
POLYLINE
  8
1
 66
1
 10
0.000000
 20
0.000000
 30
0.000000
 40
0.000000
 41
0.000000
  0
VERTEX
  8
1
 10
70.577113
 20
85.355074
  0
VERTEX
  8
1
 10
69.380024
 20
85.355074
  0
SEQEND
  0
POLYLINE
  8
1
 66
1
 10
0.000000
 20
0.000000
 30
0.000000
 40
0.000000
 41
0.000000
  0
VERTEX
  8
1
 10
84.942185
 20
142.815361
  0
VERTEX
  8
1
 10
84.942185
 20
138.027004
  0
SEQEND
  0
POLYLINE
  8
1
 66
1
 10
0.000000
 20
0.000000
 30
0.000000
 40
0.000000
 41
0.000000
  0
VERTEX
  8
1
 10
87.336363
 20
142.815361
  0
VERTEX
  8
1
 10
87.336363
 20
138.027004
  0
SEQEND
  0
POLYLINE
  8
1
 66
1
 10
0.000000
 20
0.000000
 30
0.000000
 40
0.000000
 41
0.000000
  0
VERTEX
  8
1
 10
87.336363
 20
140.421182
  0
VERTEX
  8
1
 10
88.533453
 20
140.421182
  0
SEQEND
  0
POLYLINE
  8
1
 66
1
 10
0.000000
 20
0.000000
 30
0.000000
 40
0.000000
 41
0.000000
  0
VERTEX
  8
1
 10
84.942185
 20
140.421182
  0
VERTEX
  8
1
 10
83.745095
 20
140.421182
  0
SEQEND
  0
POLYLINE
  8
1
 66
1
 10
0.000000
 20
0.000000
 30
0.000000
 40
0.000000
 41
0.000000
  0
VERTEX
  8
1
 10
68.182934
 20
116.479396
  0
VERTEX
  8
1
 10
84.942185
 20
116.479396
  0
VERTEX
  8
1
 10
84.942185
 20
130.844468
  0
VERTEX
  8
1
 10
68.182934
 20
130.844468
  0
VERTEX
  8
1
 10
68.182934
 20
116.479396
  0
SEQEND
  0
TEXT
 39
0.127000
  8
1
 10
70.577113
 20
117.676485
 30
0.000000
 40
1.436507
 72
5
 11
70.577113
 21
120.070664
 31
0.000000
 50
90.000000
  1
FB
  0
TEXT
 39
0.127000
  8
1
 10
74.168381
 20
117.676485
 30
0.000000
 40
1.436507
 72
5
 11
74.168381
 21
121.507171
 31
0.000000
 50
90.000000
  1
LBI
  0
TEXT
 39
0.127000
  8
1
 10
78.956738
 20
116.479396
 30
0.000000
 40
1.436507
 72
5
 11
78.956738
 21
121.746589
 31
0.000000
 50
90.000000
  1
/LBO
  0
TEXT
 39
0.127000
  8
1
 10
83.745095
 20
117.676485
 30
0.000000
 40
1.436507
 72
5
 11
83.745095
 21
121.507171
 31
0.000000
 50
90.000000
  1
REF
  0
TEXT
 39
0.127000
  8
1
 10
83.745095
 20
123.661932
 30
0.000000
 40
1.436507
 72
5
 11
83.745095
 21
130.365632
 31
0.000000
 50
90.000000
  1
/SHDN
  0
TEXT
 39
0.127000
  8
1
 10
78.956738
 20
126.056111
 30
0.000000
 40
1.436507
 72
5
 11
78.956738
 21
129.886796
 31
0.000000
 50
90.000000
  1
GND
  0
TEXT
 39
0.127000
  8
1
 10
74.168381
 20
127.253200
 30
0.000000
 40
1.436507
 72
5
 11
74.168381
 21
129.647379
 31
0.000000
 50
90.000000
  1
LX
  0
TEXT
 39
0.127000
  8
1
 10
70.577113
 20
126.056111
 30
0.000000
 40
1.436507
 72
5
 11
70.577113
 21
129.886796
 31
0.000000
 50
90.000000
  1
OUT
  0
POLYLINE
  8
1
 66
1
 10
0.000000
 20
0.000000
 30
0.000000
 40
0.000000
 41
0.000000
  0
VERTEX
  8
1
 10
89.730542
 20
116.479396
  0
VERTEX
  8
1
 10
89.730542
 20
111.691039
  0
SEQEND
  0
POLYLINE
  8
1
 66
1
 10
0.000000
 20
0.000000
 30
0.000000
 40
0.000000
 41
0.000000
  0
VERTEX
  8
1
 10
92.124720
 20
116.479396
  0
VERTEX
  8
1
 10
92.124720
 20
111.691039
  0
SEQEND
  0
POLYLINE
  8
1
 66
1
 10
0.000000
 20
0.000000
 30
0.000000
 40
0.000000
 41
0.000000
  0
VERTEX
  8
1
 10
92.124720
 20
114.085218
  0
VERTEX
  8
1
 10
93.321810
 20
114.085218
  0
SEQEND
  0
POLYLINE
  8
1
 66
1
 10
0.000000
 20
0.000000
 30
0.000000
 40
0.000000
 41
0.000000
  0
VERTEX
  8
1
 10
89.730542
 20
114.085218
  0
VERTEX
  8
1
 10
88.533453
 20
114.085218
  0
SEQEND
  0
POLYLINE
  8
1
 66
1
 10
0.000000
 20
0.000000
 30
0.000000
 40
0.000000
 41
0.000000
  0
VERTEX
  8
1
 10
38.255702
 20
147.603718
  0
VERTEX
  8
1
 10
38.255702
 20
149.997897
  0
VERTEX
  8
1
 10
35.861523
 20
149.997897
  0
VERTEX
  8
1
 10
40.649881
 20
149.997897
  0
VERTEX
  8
1
 10
38.255702
 20
153.589164
  0
VERTEX
  8
1
 10
35.861523
 20
149.997897
  0
SEQEND
  0
POLYLINE
  8
1
 66
1
 10
0.000000
 20
0.000000
 30
0.000000
 40
0.000000
 41
0.000000
  0
VERTEX
  8
1
 10
35.861523
 20
153.589164
  0
VERTEX
  8
1
 10
40.649881
 20
153.589164
  0
SEQEND
  0
POLYLINE
  8
1
 66
1
 10
0.000000
 20
0.000000
 30
0.000000
 40
0.000000
 41
0.000000
  0
VERTEX
  8
1
 10
38.255702
 20
153.589164
  0
VERTEX
  8
1
 10
38.255702
 20
154.786254
  0
SEQEND
  0
POLYLINE
  8
1
 66
1
 10
0.000000
 20
0.000000
 30
0.000000
 40
0.000000
 41
0.000000
  0
VERTEX
  8
1
 10
65.788756
 20
172.742593
  0
VERTEX
  8
1
 10
65.788756
 20
170.348415
  0
VERTEX
  8
1
 10
72.971292
 20
170.348415
  0
VERTEX
  8
1
 10
72.971292
 20
172.742593
  0
VERTEX
  8
1
 10
65.788756
 20
172.742593
  0
SEQEND
  0
POLYLINE
  8
1
 66
1
 10
0.000000
 20
0.000000
 30
0.000000
 40
0.000000
 41
0.000000
  0
VERTEX
  8
1
 10
65.788756
 20
171.545504
  0
VERTEX
  8
1
 10
64.591667
 20
171.545504
  0
SEQEND
  0
POLYLINE
  8
1
 66
1
 10
0.000000
 20
0.000000
 30
0.000000
 40
0.000000
 41
0.000000
  0
VERTEX
  8
1
 10
72.971292
 20
171.545504
  0
VERTEX
  8
1
 10
74.168381
 20
171.545504
  0
SEQEND
  0
POLYLINE
  8
1
 66
1
 10
0.000000
 20
0.000000
 30
0.000000
 40
0.000000
 41
0.000000
  0
VERTEX
  8
1
 10
57.409131
 20
136.829914
  0
VERTEX
  8
1
 10
57.409131
 20
139.224093
  0
VERTEX
  8
1
 10
55.014952
 20
139.224093
  0
VERTEX
  8
1
 10
59.803309
 20
139.224093
  0
VERTEX
  8
1
 10
57.409131
 20
142.815361
  0
VERTEX
  8
1
 10
55.014952
 20
139.224093
  0
SEQEND
  0
POLYLINE
  8
1
 66
1
 10
0.000000
 20
0.000000
 30
0.000000
 40
0.000000
 41
0.000000
  0
VERTEX
  8
1
 10
55.014952
 20
142.815361
  0
VERTEX
  8
1
 10
59.803309
 20
142.815361
  0
SEQEND
  0
POLYLINE
  8
1
 66
1
 10
0.000000
 20
0.000000
 30
0.000000
 40
0.000000
 41
0.000000
  0
VERTEX
  8
1
 10
57.409131
 20
142.815361
  0
VERTEX
  8
1
 10
57.409131
 20
144.012450
  0
SEQEND
  0
POLYLINE
  8
1
 66
1
 10
0.000000
 20
0.000000
 30
0.000000
 40
0.000000
 41
0.000000
  0
VERTEX
  8
1
 10
96.913078
 20
170.348415
  0
VERTEX
  8
1
 10
99.307256
 20
170.348415
  0
VERTEX
  8
1
 10
99.307256
 20
177.530950
  0
VERTEX
  8
1
 10
96.913078
 20
177.530950
  0
VERTEX
  8
1
 10
96.913078
 20
170.348415
  0
SEQEND
  0
POLYLINE
  8
1
 66
1
 10
0.000000
 20
0.000000
 30
0.000000
 40
0.000000
 41
0.000000
  0
VERTEX
  8
1
 10
98.110167
 20
170.348415
  0
VERTEX
  8
1
 10
98.110167
 20
169.151325
  0
SEQEND
  0
POLYLINE
  8
1
 66
1
 10
0.000000
 20
0.000000
 30
0.000000
 40
0.000000
 41
0.000000
  0
VERTEX
  8
1
 10
98.110167
 20
177.530950
  0
VERTEX
  8
1
 10
98.110167
 20
178.728040
  0
SEQEND
  0
POLYLINE
  8
1
 66
1
 10
0.000000
 20
0.000000
 30
0.000000
 40
0.000000
 41
0.000000
  0
VERTEX
  8
1
 10
50.226595
 20
181.122218
  0
VERTEX
  8
1
 10
52.620774
 20
181.122218
  0
VERTEX
  8
1
 10
52.620774
 20
178.728040
  0
VERTEX
  8
1
 10
52.620774
 20
183.516397
  0
VERTEX
  8
1
 10
56.212041
 20
181.122218
  0
VERTEX
  8
1
 10
52.620774
 20
178.728040
  0
SEQEND
  0
POLYLINE
  8
1
 66
1
 10
0.000000
 20
0.000000
 30
0.000000
 40
0.000000
 41
0.000000
  0
VERTEX
  8
1
 10
56.212041
 20
178.728040
  0
VERTEX
  8
1
 10
56.212041
 20
183.516397
  0
SEQEND
  0
POLYLINE
  8
1
 66
1
 10
0.000000
 20
0.000000
 30
0.000000
 40
0.000000
 41
0.000000
  0
VERTEX
  8
1
 10
56.212041
 20
181.122218
  0
VERTEX
  8
1
 10
57.409131
 20
181.122218
  0
SEQEND
  0
POLYLINE
  8
1
 66
1
 10
0.000000
 20
0.000000
 30
0.000000
 40
0.000000
 41
0.000000
  0
VERTEX
  8
1
 10
114.869417
 20
128.450289
  0
VERTEX
  8
1
 10
114.869417
 20
130.844468
  0
VERTEX
  8
1
 10
124.446132
 20
130.844468
  0
VERTEX
  8
1
 10
124.446132
 20
128.450289
  0
SEQEND
  0
POLYLINE
  8
1
 66
1
 10
0.000000
 20
0.000000
 30
0.000000
 40
0.000000
 41
0.000000
  0
VERTEX
  8
1
 10
129.234489
 20
128.450289
  0
VERTEX
  8
1
 10
129.234489
 20
130.844468
  0
VERTEX
  8
1
 10
138.811203
 20
130.844468
  0
VERTEX
  8
1
 10
138.811203
 20
128.450289
  0
SEQEND
  0
POLYLINE
  8
1
 66
1
 10
0.000000
 20
0.000000
 30
0.000000
 40
0.000000
 41
0.000000
  0
VERTEX
  8
1
 10
81.350917
 20
178.728040
  0
VERTEX
  8
1
 10
81.350917
 20
184.713486
  0
VERTEX
  8
1
 10
90.927631
 20
184.713486
  0
VERTEX
  8
1
 10
90.927631
 20
182.319308
  0
VERTEX
  8
1
 10
81.350917
 20
182.319308
  0
SEQEND
  0
POLYLINE
  8
1
 66
1
 10
0.000000
 20
0.000000
 30
0.000000
 40
0.000000
 41
0.000000
  0
VERTEX
  8
1
 10
90.927631
 20
182.319308
  0
VERTEX
  8
1
 10
90.927631
 20
178.728040
  0
SEQEND
  0
POLYLINE
  8
1
 66
1
 10
0.000000
 20
0.000000
 30
0.000000
 40
0.000000
 41
0.000000
  0
VERTEX
  8
1
 10
86.139274
 20
188.304754
  0
VERTEX
  8
1
 10
86.139274
 20
185.910576
  0
VERTEX
  8
1
 10
88.533453
 20
181.122218
  0
VERTEX
  8
1
 10
87.336363
 20
181.122218
  0
VERTEX
  8
1
 10
88.533453
 20
182.319308
  0
VERTEX
  8
1
 10
88.533453
 20
181.122218
  0
SEQEND
  0
TEXT
 39
0.127000
  8
1
 10
83.745095
 20
178.728040
 30
0.000000
 40
1.436507
 72
5
 11
83.745095
 21
181.122218
 31
0.000000
 50
90.000000
  1
cw
  0
POLYLINE
  8
1
 66
1
 10
0.000000
 20
0.000000
 30
0.000000
 40
0.000000
 41
0.000000
  0
VERTEX
  8
1
 10
98.110167
 20
140.421182
  0
VERTEX
  8
1
 10
88.533453
 20
140.421182
  0
SEQEND
  0
POLYLINE
  8
1
 66
1
 10
0.000000
 20
0.000000
 30
0.000000
 40
0.000000
 41
0.000000
  0
VERTEX
  8
1
 10
69.380024
 20
85.355074
  0
VERTEX
  8
1
 10
59.803309
 20
85.355074
  0
SEQEND
  0
POLYLINE
  8
1
 66
1
 10
0.000000
 20
0.000000
 30
0.000000
 40
0.000000
 41
0.000000
  0
VERTEX
  8
1
 10
59.803309
 20
85.355074
  0
VERTEX
  8
1
 10
59.803309
 20
114.085218
  0
SEQEND
  0
POLYLINE
  8
1
 66
1
 10
0.000000
 20
0.000000
 30
0.000000
 40
0.000000
 41
0.000000
  0
VERTEX
  8
1
 10
98.110167
 20
140.421182
  0
VERTEX
  8
1
 10
98.110167
 20
135.632825
  0
SEQEND
  0
POLYLINE
  8
1
 66
1
 10
0.000000
 20
0.000000
 30
0.000000
 40
0.000000
 41
0.000000
  0
VERTEX
  8
1
 10
98.110167
 20
135.632825
  0
VERTEX
  8
1
 10
98.110167
 20
114.085218
  0
SEQEND
  0
POLYLINE
  8
1
 66
1
 10
0.000000
 20
0.000000
 30
0.000000
 40
0.000000
 41
0.000000
  0
VERTEX
  8
1
 10
98.110167
 20
114.085218
  0
VERTEX
  8
1
 10
98.110167
 20
105.705592
  0
SEQEND
  0
POLYLINE
  8
1
 66
1
 10
0.000000
 20
0.000000
 30
0.000000
 40
0.000000
 41
0.000000
  0
VERTEX
  8
1
 10
98.110167
 20
105.705592
  0
VERTEX
  8
1
 10
98.110167
 20
85.355074
  0
SEQEND
  0
POLYLINE
  8
1
 66
1
 10
0.000000
 20
0.000000
 30
0.000000
 40
0.000000
 41
0.000000
  0
VERTEX
  8
1
 10
98.110167
 20
85.355074
  0
VERTEX
  8
1
 10
74.168381
 20
85.355074
  0
SEQEND
  0
POLYLINE
  8
1
 66
1
 10
0.000000
 20
0.000000
 30
0.000000
 40
0.000000
 41
0.000000
  0
VERTEX
  8
1
 10
98.110167
 20
135.632825
  0
VERTEX
  8
1
 10
78.956738
 20
135.632825
  0
VERTEX
  8
1
 10
78.956738
 20
130.844468
  0
SEQEND
  0
POLYLINE
  8
1
 66
1
 10
0.000000
 20
0.000000
 30
0.000000
 40
0.000000
 41
0.000000
  0
VERTEX
  8
1
 10
83.745095
 20
140.421182
  0
VERTEX
  8
1
 10
76.562560
 20
140.421182
  0
SEQEND
  0
POLYLINE
  8
1
 66
1
 10
0.000000
 20
0.000000
 30
0.000000
 40
0.000000
 41
0.000000
  0
VERTEX
  8
1
 10
76.562560
 20
140.421182
  0
VERTEX
  8
1
 10
69.380024
 20
140.421182
  0
SEQEND
  0
POLYLINE
  8
1
 66
1
 10
0.000000
 20
0.000000
 30
0.000000
 40
0.000000
 41
0.000000
  0
VERTEX
  8
1
 10
69.380024
 20
140.421182
  0
VERTEX
  8
1
 10
69.380024
 20
130.844468
  0
SEQEND
  0
POLYLINE
  8
1
 66
1
 10
0.000000
 20
0.000000
 30
0.000000
 40
0.000000
 41
0.000000
  0
VERTEX
  8
1
 10
76.562560
 20
140.421182
  0
VERTEX
  8
1
 10
76.562560
 20
133.238646
  0
VERTEX
  8
1
 10
83.745095
 20
133.238646
  0
VERTEX
  8
1
 10
83.745095
 20
130.844468
  0
SEQEND
  0
POLYLINE
  8
1
 66
1
 10
0.000000
 20
0.000000
 30
0.000000
 40
0.000000
 41
0.000000
  0
VERTEX
  8
1
 10
88.533453
 20
114.085218
  0
VERTEX
  8
1
 10
83.745095
 20
114.085218
  0
VERTEX
  8
1
 10
83.745095
 20
116.479396
  0
SEQEND
  0
POLYLINE
  8
1
 66
1
 10
0.000000
 20
0.000000
 30
0.000000
 40
0.000000
 41
0.000000
  0
VERTEX
  8
1
 10
98.110167
 20
114.085218
  0
VERTEX
  8
1
 10
93.321810
 20
114.085218
  0
SEQEND
  0
POLYLINE
  8
1
 66
1
 10
0.000000
 20
0.000000
 30
0.000000
 40
0.000000
 41
0.000000
  0
VERTEX
  8
1
 10
59.803309
 20
123.661932
  0
VERTEX
  8
1
 10
59.803309
 20
130.844468
  0
SEQEND
  0
POLYLINE
  8
1
 66
1
 10
0.000000
 20
0.000000
 30
0.000000
 40
0.000000
 41
0.000000
  0
VERTEX
  8
1
 10
59.803309
 20
130.844468
  0
VERTEX
  8
1
 10
62.197488
 20
130.844468
  0
VERTEX
  8
1
 10
62.197488
 20
135.632825
  0
SEQEND
  0
POLYLINE
  8
1
 66
1
 10
0.000000
 20
0.000000
 30
0.000000
 40
0.000000
 41
0.000000
  0
VERTEX
  8
1
 10
74.168381
 20
130.844468
  0
VERTEX
  8
1
 10
74.168381
 20
135.632825
  0
VERTEX
  8
1
 10
62.197488
 20
135.632825
  0
SEQEND
  0
POLYLINE
  8
1
 66
1
 10
0.000000
 20
0.000000
 30
0.000000
 40
0.000000
 41
0.000000
  0
VERTEX
  8
1
 10
59.803309
 20
147.603718
  0
VERTEX
  8
1
 10
57.409131
 20
147.603718
  0
SEQEND
  0
POLYLINE
  8
1
 66
1
 10
0.000000
 20
0.000000
 30
0.000000
 40
0.000000
 41
0.000000
  0
VERTEX
  8
1
 10
62.197488
 20
147.603718
  0
VERTEX
  8
1
 10
59.803309
 20
147.603718
  0
SEQEND
  0
POLYLINE
  8
1
 66
1
 10
0.000000
 20
0.000000
 30
0.000000
 40
0.000000
 41
0.000000
  0
VERTEX
  8
1
 10
64.591667
 20
147.603718
  0
VERTEX
  8
1
 10
62.197488
 20
147.603718
  0
SEQEND
  0
POLYLINE
  8
1
 66
1
 10
0.000000
 20
0.000000
 30
0.000000
 40
0.000000
 41
0.000000
  0
VERTEX
  8
1
 10
69.380024
 20
140.421182
  0
VERTEX
  8
1
 10
69.380024
 20
147.603718
  0
VERTEX
  8
1
 10
64.591667
 20
147.603718
  0
SEQEND
  0
POLYLINE
  8
1
 66
1
 10
0.000000
 20
0.000000
 30
0.000000
 40
0.000000
 41
0.000000
  0
VERTEX
  8
1
 10
57.409131
 20
147.603718
  0
VERTEX
  8
1
 10
38.255702
 20
147.603718
  0
SEQEND
  0
POLYLINE
  8
1
 66
1
 10
0.000000
 20
0.000000
 30
0.000000
 40
0.000000
 41
0.000000
  0
VERTEX
  8
1
 10
98.110167
 20
105.705592
  0
VERTEX
  8
1
 10
78.956738
 20
105.705592
  0
SEQEND
  0
POLYLINE
  8
1
 66
1
 10
0.000000
 20
0.000000
 30
0.000000
 40
0.000000
 41
0.000000
  0
VERTEX
  8
1
 10
78.956738
 20
105.705592
  0
VERTEX
  8
1
 10
74.168381
 20
105.705592
  0
VERTEX
  8
1
 10
74.168381
 20
116.479396
  0
SEQEND
  0
POLYLINE
  8
1
 66
1
 10
0.000000
 20
0.000000
 30
0.000000
 40
0.000000
 41
0.000000
  0
VERTEX
  8
1
 10
78.956738
 20
105.705592
  0
VERTEX
  8
1
 10
78.956738
 20
116.479396
  0
SEQEND
  0
POLYLINE
  8
1
 66
1
 10
0.000000
 20
0.000000
 30
0.000000
 40
0.000000
 41
0.000000
  0
VERTEX
  8
1
 10
57.409131
 20
147.603718
  0
VERTEX
  8
1
 10
57.409131
 20
144.012450
  0
SEQEND
  0
POLYLINE
  8
1
 66
1
 10
0.000000
 20
0.000000
 30
0.000000
 40
0.000000
 41
0.000000
  0
VERTEX
  8
1
 10
59.803309
 20
130.844468
  0
VERTEX
  8
1
 10
57.409131
 20
130.844468
  0
VERTEX
  8
1
 10
57.409131
 20
136.829914
  0
SEQEND
  0
POLYLINE
  8
1
 66
1
 10
0.000000
 20
0.000000
 30
0.000000
 40
0.000000
 41
0.000000
  0
VERTEX
  8
1
 10
50.226595
 20
181.122218
  0
VERTEX
  8
1
 10
45.438238
 20
181.122218
  0
VERTEX
  8
1
 10
45.438238
 20
163.165879
  0
SEQEND
  0
POLYLINE
  8
1
 66
1
 10
0.000000
 20
0.000000
 30
0.000000
 40
0.000000
 41
0.000000
  0
VERTEX
  8
1
 10
45.438238
 20
163.165879
  0
VERTEX
  8
1
 10
45.438238
 20
109.296860
  0
VERTEX
  8
1
 10
69.380024
 20
109.296860
  0
VERTEX
  8
1
 10
69.380024
 20
116.479396
  0
SEQEND
  0
POLYLINE
  8
1
 66
1
 10
0.000000
 20
0.000000
 30
0.000000
 40
0.000000
 41
0.000000
  0
VERTEX
  8
1
 10
98.110167
 20
140.421182
  0
VERTEX
  8
1
 10
98.110167
 20
165.560058
  0
SEQEND
  0
POLYLINE
  8
1
 66
1
 10
0.000000
 20
0.000000
 30
0.000000
 40
0.000000
 41
0.000000
  0
VERTEX
  8
1
 10
98.110167
 20
165.560058
  0
VERTEX
  8
1
 10
74.168381
 20
165.560058
  0
VERTEX
  8
1
 10
74.168381
 20
171.545504
  0
SEQEND
  0
POLYLINE
  8
1
 66
1
 10
0.000000
 20
0.000000
 30
0.000000
 40
0.000000
 41
0.000000
  0
VERTEX
  8
1
 10
45.438238
 20
163.165879
  0
VERTEX
  8
1
 10
38.255702
 20
163.165879
  0
VERTEX
  8
1
 10
38.255702
 20
154.786254
  0
SEQEND
  0
POLYLINE
  8
1
 66
1
 10
0.000000
 20
0.000000
 30
0.000000
 40
0.000000
 41
0.000000
  0
VERTEX
  8
1
 10
38.255702
 20
121.267753
  0
VERTEX
  8
1
 10
38.255702
 20
85.355074
  0
SEQEND
  0
POLYLINE
  8
1
 66
1
 10
0.000000
 20
0.000000
 30
0.000000
 40
0.000000
 41
0.000000
  0
VERTEX
  8
1
 10
38.255702
 20
85.355074
  0
VERTEX
  8
1
 10
59.803309
 20
85.355074
  0
SEQEND
  0
POLYLINE
  8
1
 66
1
 10
0.000000
 20
0.000000
 30
0.000000
 40
0.000000
 41
0.000000
  0
VERTEX
  8
1
 10
110.081060
 20
123.661932
  0
VERTEX
  8
1
 10
110.081060
 20
85.355074
  0
VERTEX
  8
1
 10
98.110167
 20
85.355074
  0
SEQEND
  0
POLYLINE
  8
1
 66
1
 10
0.000000
 20
0.000000
 30
0.000000
 40
0.000000
 41
0.000000
  0
VERTEX
  8
1
 10
110.081060
 20
123.661932
  0
VERTEX
  8
1
 10
114.869417
 20
123.661932
  0
SEQEND
  0
POLYLINE
  8
1
 66
1
 10
0.000000
 20
0.000000
 30
0.000000
 40
0.000000
 41
0.000000
  0
VERTEX
  8
1
 10
114.869417
 20
123.661932
  0
VERTEX
  8
1
 10
114.869417
 20
128.450289
  0
SEQEND
  0
POLYLINE
  8
1
 66
1
 10
0.000000
 20
0.000000
 30
0.000000
 40
0.000000
 41
0.000000
  0
VERTEX
  8
1
 10
114.869417
 20
123.661932
  0
VERTEX
  8
1
 10
124.446132
 20
123.661932
  0
SEQEND
  0
POLYLINE
  8
1
 66
1
 10
0.000000
 20
0.000000
 30
0.000000
 40
0.000000
 41
0.000000
  0
VERTEX
  8
1
 10
124.446132
 20
123.661932
  0
VERTEX
  8
1
 10
124.446132
 20
128.450289
  0
SEQEND
  0
POLYLINE
  8
1
 66
1
 10
0.000000
 20
0.000000
 30
0.000000
 40
0.000000
 41
0.000000
  0
VERTEX
  8
1
 10
124.446132
 20
123.661932
  0
VERTEX
  8
1
 10
129.234489
 20
123.661932
  0
SEQEND
  0
POLYLINE
  8
1
 66
1
 10
0.000000
 20
0.000000
 30
0.000000
 40
0.000000
 41
0.000000
  0
VERTEX
  8
1
 10
129.234489
 20
123.661932
  0
VERTEX
  8
1
 10
129.234489
 20
128.450289
  0
SEQEND
  0
POLYLINE
  8
1
 66
1
 10
0.000000
 20
0.000000
 30
0.000000
 40
0.000000
 41
0.000000
  0
VERTEX
  8
1
 10
129.234489
 20
123.661932
  0
VERTEX
  8
1
 10
138.811203
 20
123.661932
  0
VERTEX
  8
1
 10
138.811203
 20
128.450289
  0
SEQEND
  0
POLYLINE
  8
1
 66
1
 10
0.000000
 20
0.000000
 30
0.000000
 40
0.000000
 41
0.000000
  0
VERTEX
  8
1
 10
57.409131
 20
181.122218
  0
VERTEX
  8
1
 10
64.591667
 20
181.122218
  0
SEQEND
  0
POLYLINE
  8
1
 66
1
 10
0.000000
 20
0.000000
 30
0.000000
 40
0.000000
 41
0.000000
  0
VERTEX
  8
1
 10
64.591667
 20
181.122218
  0
VERTEX
  8
1
 10
64.591667
 20
171.545504
  0
SEQEND
  0
POLYLINE
  8
1
 66
1
 10
0.000000
 20
0.000000
 30
0.000000
 40
0.000000
 41
0.000000
  0
VERTEX
  8
1
 10
86.139274
 20
188.304754
  0
VERTEX
  8
1
 10
76.562560
 20
188.304754
  0
VERTEX
  8
1
 10
76.562560
 20
181.122218
  0
SEQEND
  0
POLYLINE
  8
1
 66
1
 10
0.000000
 20
0.000000
 30
0.000000
 40
0.000000
 41
0.000000
  0
VERTEX
  8
1
 10
76.562560
 20
181.122218
  0
VERTEX
  8
1
 10
76.562560
 20
178.728040
  0
VERTEX
  8
1
 10
81.350917
 20
178.728040
  0
SEQEND
  0
POLYLINE
  8
1
 66
1
 10
0.000000
 20
0.000000
 30
0.000000
 40
0.000000
 41
0.000000
  0
VERTEX
  8
1
 10
76.562560
 20
181.122218
  0
VERTEX
  8
1
 10
64.591667
 20
181.122218
  0
SEQEND
  0
POLYLINE
  8
1
 66
1
 10
0.000000
 20
0.000000
 30
0.000000
 40
0.000000
 41
0.000000
  0
VERTEX
  8
1
 10
98.110167
 20
165.560058
  0
VERTEX
  8
1
 10
98.110167
 20
169.151325
  0
SEQEND
  0
POLYLINE
  8
1
 66
1
 10
0.000000
 20
0.000000
 30
0.000000
 40
0.000000
 41
0.000000
  0
VERTEX
  8
1
 10
98.110167
 20
178.728040
  0
VERTEX
  8
1
 10
90.927631
 20
178.728040
  0
SEQEND
  0
POLYLINE
  8
1
 66
1
 10
0.000000
 20
0.000000
 30
0.000000
 40
0.000000
 41
0.000000
  0
VERTEX
  8
1
 10
38.255702
 20
78.172539
  0
VERTEX
  8
1
 10
38.255702
 20
85.355074
  0
SEQEND
  0
POLYLINE
  8
1
 66
1
 10
0.000000
 20
0.000000
 30
0.000000
 40
0.598545
 41
0.598545
 70
1
  0
VERTEX
  8
1
 42
1.000000
 10
97.810895
 20
140.421182
  0
VERTEX
  8
1
 42
1.000000
 10
98.409439
 20
140.421182
  0
SEQEND
  0
POLYLINE
  8
1
 66
1
 10
0.000000
 20
0.000000
 30
0.000000
 40
0.598545
 41
0.598545
 70
1
  0
VERTEX
  8
1
 42
1.000000
 10
97.810895
 20
135.632825
  0
VERTEX
  8
1
 42
1.000000
 10
98.409439
 20
135.632825
  0
SEQEND
  0
POLYLINE
  8
1
 66
1
 10
0.000000
 20
0.000000
 30
0.000000
 40
0.598545
 41
0.598545
 70
1
  0
VERTEX
  8
1
 42
1.000000
 10
76.263287
 20
140.421182
  0
VERTEX
  8
1
 42
1.000000
 10
76.861832
 20
140.421182
  0
SEQEND
  0
POLYLINE
  8
1
 66
1
 10
0.000000
 20
0.000000
 30
0.000000
 40
0.598545
 41
0.598545
 70
1
  0
VERTEX
  8
1
 42
1.000000
 10
97.810895
 20
114.085218
  0
VERTEX
  8
1
 42
1.000000
 10
98.409439
 20
114.085218
  0
SEQEND
  0
POLYLINE
  8
1
 66
1
 10
0.000000
 20
0.000000
 30
0.000000
 40
0.598545
 41
0.598545
 70
1
  0
VERTEX
  8
1
 42
1.000000
 10
69.080751
 20
140.421182
  0
VERTEX
  8
1
 42
1.000000
 10
69.679296
 20
140.421182
  0
SEQEND
  0
POLYLINE
  8
1
 66
1
 10
0.000000
 20
0.000000
 30
0.000000
 40
0.598545
 41
0.598545
 70
1
  0
VERTEX
  8
1
 42
1.000000
 10
97.810895
 20
105.705592
  0
VERTEX
  8
1
 42
1.000000
 10
98.409439
 20
105.705592
  0
SEQEND
  0
POLYLINE
  8
1
 66
1
 10
0.000000
 20
0.000000
 30
0.000000
 40
0.598545
 41
0.598545
 70
1
  0
VERTEX
  8
1
 42
1.000000
 10
78.657466
 20
105.705592
  0
VERTEX
  8
1
 42
1.000000
 10
79.256011
 20
105.705592
  0
SEQEND
  0
POLYLINE
  8
1
 66
1
 10
0.000000
 20
0.000000
 30
0.000000
 40
0.598545
 41
0.598545
 70
1
  0
VERTEX
  8
1
 42
1.000000
 10
57.109858
 20
147.603718
  0
VERTEX
  8
1
 42
1.000000
 10
57.708403
 20
147.603718
  0
SEQEND
  0
POLYLINE
  8
1
 66
1
 10
0.000000
 20
0.000000
 30
0.000000
 40
0.598545
 41
0.598545
 70
1
  0
VERTEX
  8
1
 42
1.000000
 10
59.504037
 20
130.844468
  0
VERTEX
  8
1
 42
1.000000
 10
60.102582
 20
130.844468
  0
SEQEND
  0
POLYLINE
  8
1
 66
1
 10
0.000000
 20
0.000000
 30
0.000000
 40
0.598545
 41
0.598545
 70
1
  0
VERTEX
  8
1
 42
1.000000
 10
45.138965
 20
163.165879
  0
VERTEX
  8
1
 42
1.000000
 10
45.737510
 20
163.165879
  0
SEQEND
  0
POLYLINE
  8
1
 66
1
 10
0.000000
 20
0.000000
 30
0.000000
 40
0.598545
 41
0.598545
 70
1
  0
VERTEX
  8
1
 42
1.000000
 10
59.504037
 20
85.355074
  0
VERTEX
  8
1
 42
1.000000
 10
60.102582
 20
85.355074
  0
SEQEND
  0
POLYLINE
  8
1
 66
1
 10
0.000000
 20
0.000000
 30
0.000000
 40
0.598545
 41
0.598545
 70
1
  0
VERTEX
  8
1
 42
1.000000
 10
97.810895
 20
85.355074
  0
VERTEX
  8
1
 42
1.000000
 10
98.409439
 20
85.355074
  0
SEQEND
  0
POLYLINE
  8
1
 66
1
 10
0.000000
 20
0.000000
 30
0.000000
 40
0.598545
 41
0.598545
 70
1
  0
VERTEX
  8
1
 42
1.000000
 10
114.570145
 20
123.661932
  0
VERTEX
  8
1
 42
1.000000
 10
115.168690
 20
123.661932
  0
SEQEND
  0
POLYLINE
  8
1
 66
1
 10
0.000000
 20
0.000000
 30
0.000000
 40
0.598545
 41
0.598545
 70
1
  0
VERTEX
  8
1
 42
1.000000
 10
124.146859
 20
123.661932
  0
VERTEX
  8
1
 42
1.000000
 10
124.745404
 20
123.661932
  0
SEQEND
  0
POLYLINE
  8
1
 66
1
 10
0.000000
 20
0.000000
 30
0.000000
 40
0.598545
 41
0.598545
 70
1
  0
VERTEX
  8
1
 42
1.000000
 10
128.935216
 20
123.661932
  0
VERTEX
  8
1
 42
1.000000
 10
129.533761
 20
123.661932
  0
SEQEND
  0
POLYLINE
  8
1
 66
1
 10
0.000000
 20
0.000000
 30
0.000000
 40
0.598545
 41
0.598545
 70
1
  0
VERTEX
  8
1
 42
1.000000
 10
64.292394
 20
181.122218
  0
VERTEX
  8
1
 42
1.000000
 10
64.890939
 20
181.122218
  0
SEQEND
  0
POLYLINE
  8
1
 66
1
 10
0.000000
 20
0.000000
 30
0.000000
 40
0.598545
 41
0.598545
 70
1
  0
VERTEX
  8
1
 42
1.000000
 10
76.263287
 20
181.122218
  0
VERTEX
  8
1
 42
1.000000
 10
76.861832
 20
181.122218
  0
SEQEND
  0
POLYLINE
  8
1
 66
1
 10
0.000000
 20
0.000000
 30
0.000000
 40
0.598545
 41
0.598545
 70
1
  0
VERTEX
  8
1
 42
1.000000
 10
97.810895
 20
165.560058
  0
VERTEX
  8
1
 42
1.000000
 10
98.409439
 20
165.560058
  0
SEQEND
  0
POLYLINE
  8
1
 66
1
 10
0.000000
 20
0.000000
 30
0.000000
 40
0.598545
 41
0.598545
 70
1
  0
VERTEX
  8
1
 42
1.000000
 10
37.956430
 20
85.355074
  0
VERTEX
  8
1
 42
1.000000
 10
38.554974
 20
85.355074
  0
SEQEND
  0
TEXT
 39
0.127000
  8
1
 10
55.014952
 20
184.713486
 30
0.000000
 40
1.915343
 72
5
 11
55.014952
 21
201.313125
 31
0.000000
 50
90.000000
  1
Temp comp
  0
TEXT
 39
0.127000
  8
1
 10
69.380024
 20
184.713486
 30
0.000000
 40
1.915343
 72
5
 11
69.380024
 21
208.974496
 31
0.000000
 50
90.000000
  1
I min = 3.3mA
  0
TEXT
 39
0.127000
  8
1
 10
74.168381
 20
184.713486
 30
0.000000
 40
1.915343
 72
5
 11
74.168381
 21
207.059153
 31
0.000000
 50
90.000000
  1
I max = 21mA
  0
TEXT
 39
0.127000
  8
1
 10
32.270256
 20
129.647378
 30
0.000000
 40
1.915343
 72
5
 11
32.270256
 21
180.723189
 31
0.000000
 50
90.000000
  1
White led filtered to 3000K
  0
TEXT
 39
0.127000
  8
1
 10
13.116827
 20
147.603718
 30
0.000000
 40
1.915343
 72
5
 11
13.116827
 21
214.002271
 31
0.000000
 50
90.000000
  1
Additional led for 'deluxe' version
  0
TEXT
 39
0.127000
  8
1
 10
35.861523
 20
85.355074
 30
0.000000
 40
1.915343
 72
5
 11
35.861523
 21
123.023484
 31
0.000000
 50
90.000000
  1
Cell positive (case)
  0
TEXT
 39
0.127000
  8
1
 10
114.869417
 20
85.355074
 30
0.000000
 40
1.915343
 72
5
 11
114.869417
 21
109.616084
 31
0.000000
 50
90.000000
  1
Cell negative
  0
TEXT
 39
0.127000
  8
1
 10
59.324474
 20
113.606382
 30
0.000000
 40
1.436507
 72
5
 11
59.324474
 21
114.564053
 31
0.000000
 50
90.000000
  1
1
  0
TEXT
 39
0.127000
  8
1
 10
59.324474
 20
123.183096
 30
0.000000
 40
1.436507
 72
5
 11
59.324474
 21
124.140768
 31
0.000000
 50
90.000000
  1
2
  0
TEXT
 39
0.127000
  8
1
 10
55.733206
 20
117.676486
 30
0.000000
 40
1.436507
 72
5
 11
55.733206
 21
120.070664
 31
0.000000
 50
90.000000
  1
L1
  0
TEXT
 39
0.127000
  8
1
 10
62.915742
 20
116.958232
 30
0.000000
 40
1.436507
 72
5
 11
62.915742
 21
120.788918
 31
0.000000
 50
90.000000
  1
22u
  0
TEXT
 39
0.127000
  8
1
 10
71.295367
 20
90.143432
 30
0.000000
 40
1.436507
 72
5
 11
71.295367
 21
92.537610
 31
0.000000
 50
90.000000
  1
C1
  0
TEXT
 39
0.127000
  8
1
 10
73.689545
 20
89.425178
 30
0.000000
 40
1.436507
 72
5
 11
73.689545
 21
93.255864
 31
0.000000
 50
90.000000
  1
4u7
  0
TEXT
 39
0.127000
  8
1
 10
85.660438
 20
145.209539
 30
0.000000
 40
1.436507
 72
5
 11
85.660438
 21
147.603718
 31
0.000000
 50
90.000000
  1
C3
  0
TEXT
 39
0.127000
  8
1
 10
88.054617
 20
144.491286
 30
0.000000
 40
1.436507
 72
5
 11
88.054617
 21
148.321972
 31
0.000000
 50
90.000000
  1
4u7
  0
TEXT
 39
0.127000
  8
1
 10
68.901188
 20
114.803471
 30
0.000000
 40
1.436507
 72
5
 11
68.901188
 21
115.761143
 31
0.000000
 50
90.000000
  1
1
  0
TEXT
 39
0.127000
  8
1
 10
73.689545
 20
114.803471
 30
0.000000
 40
1.436507
 72
5
 11
73.689545
 21
115.761143
 31
0.000000
 50
90.000000
  1
2
  0
TEXT
 39
0.127000
  8
1
 10
78.477902
 20
114.803471
 30
0.000000
 40
1.436507
 72
5
 11
78.477902
 21
115.761143
 31
0.000000
 50
90.000000
  1
3
  0
TEXT
 39
0.127000
  8
1
 10
83.266260
 20
114.803471
 30
0.000000
 40
1.436507
 72
5
 11
83.266260
 21
115.761143
 31
0.000000
 50
90.000000
  1
4
  0
TEXT
 39
0.127000
  8
1
 10
83.266260
 20
131.562721
 30
0.000000
 40
1.436507
 72
5
 11
83.266260
 21
132.520393
 31
0.000000
 50
90.000000
  1
5
  0
TEXT
 39
0.127000
  8
1
 10
78.477902
 20
131.562721
 30
0.000000
 40
1.436507
 72
5
 11
78.477902
 21
132.520393
 31
0.000000
 50
90.000000
  1
6
  0
TEXT
 39
0.127000
  8
1
 10
73.689545
 20
131.562721
 30
0.000000
 40
1.436507
 72
5
 11
73.689545
 21
132.520393
 31
0.000000
 50
90.000000
  1
7
  0
TEXT
 39
0.127000
  8
1
 10
68.901188
 20
131.562721
 30
0.000000
 40
1.436507
 72
5
 11
68.901188
 21
132.520393
 31
0.000000
 50
90.000000
  1
8
  0
TEXT
 39
0.127000
  8
1
 10
67.704099
 20
122.464843
 30
0.000000
 40
1.436507
 72
5
 11
67.704099
 21
124.859021
 31
0.000000
 50
90.000000
  1
Q1
  0
TEXT
 39
0.127000
  8
1
 10
88.054617
 20
118.873575
 30
0.000000
 40
1.436507
 72
5
 11
88.054617
 21
128.450289
 31
0.000000
 50
90.000000
  1
MAX1674
  0
TEXT
 39
0.127000
  8
1
 10
90.448795
 20
118.873575
 30
0.000000
 40
1.436507
 72
5
 11
90.448795
 21
121.267753
 31
0.000000
 50
90.000000
  1
C5
  0
TEXT
 39
0.127000
  8
1
 10
92.842974
 20
117.437068
 30
0.000000
 40
1.436507
 72
5
 11
92.842974
 21
122.704261
 31
0.000000
 50
90.000000
  1
100n
  0
TEXT
 39
0.127000
  8
1
 10
37.776866
 20
148.321972
 30
0.000000
 40
1.436507
 72
5
 11
37.776866
 21
149.279643
 31
0.000000
 50
90.000000
  1
2
  0
TEXT
 39
0.127000
  8
1
 10
37.776866
 20
154.307418
 30
0.000000
 40
1.436507
 72
5
 11
37.776866
 21
155.265090
 31
0.000000
 50
90.000000
  1
1
  0
TEXT
 39
0.127000
  8
1
 10
35.382688
 20
149.279643
 30
0.000000
 40
1.436507
 72
5
 11
35.382688
 21
153.110329
 31
0.000000
 50
90.000000
  1
LD1
  0
TEXT
 39
0.127000
  8
1
 10
42.565223
 20
147.843136
 30
0.000000
 40
1.436507
 72
5
 11
42.565223
 21
154.546836
 31
0.000000
 50
90.000000
  1
White
  0
TEXT
 39
0.127000
  8
1
 10
68.901188
 20
166.757147
 30
0.000000
 40
1.436507
 72
5
 11
68.901188
 21
169.151325
 31
0.000000
 50
90.000000
  1
R1
  0
TEXT
 39
0.127000
  8
1
 10
71.295367
 20
166.038893
 30
0.000000
 40
1.436507
 72
5
 11
71.295367
 21
169.869579
 31
0.000000
 50
90.000000
  1
2k2
  0
TEXT
 39
0.127000
  8
1
 10
56.930295
 20
137.548168
 30
0.000000
 40
1.436507
 72
5
 11
56.930295
 21
138.505839
 31
0.000000
 50
90.000000
  1
2
  0
TEXT
 39
0.127000
  8
1
 10
56.930295
 20
143.533614
 30
0.000000
 40
1.436507
 72
5
 11
56.930295
 21
144.491286
 31
0.000000
 50
90.000000
  1
1
  0
TEXT
 39
0.127000
  8
1
 10
54.536116
 20
139.224093
 30
0.000000
 40
1.436507
 72
5
 11
54.536116
 21
141.618271
 31
0.000000
 50
90.000000
  1
D1
  0
TEXT
 39
0.127000
  8
1
 10
61.718652
 20
134.914571
 30
0.000000
 40
1.436507
 72
5
 11
61.718652
 21
145.927793
 31
0.000000
 50
90.000000
  1
schottky
  0
TEXT
 39
0.127000
  8
1
 10
94.040063
 20
172.742593
 30
0.000000
 40
1.436507
 72
5
 11
94.040063
 21
175.136772
 31
0.000000
 50
90.000000
  1
R2
  0
TEXT
 39
0.127000
  8
1
 10
96.434242
 20
172.024340
 30
0.000000
 40
1.436507
 72
5
 11
96.434242
 21
175.855025
 31
0.000000
 50
90.000000
  1
33R
  0
TEXT
 39
0.127000
  8
1
 10
52.141938
 20
179.446293
 30
0.000000
 40
1.436507
 72
5
 11
52.141938
 21
180.403965
 31
0.000000
 50
90.000000
  1
2
  0
TEXT
 39
0.127000
  8
1
 10
58.127384
 20
179.446293
 30
0.000000
 40
1.436507
 72
5
 11
58.127384
 21
180.403965
 31
0.000000
 50
90.000000
  1
1
  0
TEXT
 39
0.127000
  8
1
 10
55.733206
 20
173.939683
 30
0.000000
 40
1.436507
 72
5
 11
55.733206
 21
176.333861
 31
0.000000
 50
90.000000
  1
D2
  0
TEXT
 39
0.127000
  8
1
 10
53.937572
 20
168.552781
 30
0.000000
 40
1.436507
 72
5
 11
53.937572
 21
178.129495
 31
0.000000
 50
90.000000
  1
Silicon
  0
TEXT
 39
0.127000
  8
1
 10
114.390581
 20
126.774364
 30
0.000000
 40
1.436507
 72
5
 11
114.390581
 21
127.732036
 31
0.000000
 50
90.000000
  1
2
  0
TEXT
 39
0.127000
  8
1
 10
123.967296
 20
126.774364
 30
0.000000
 40
1.436507
 72
5
 11
123.967296
 21
127.732036
 31
0.000000
 50
90.000000
  1
1
  0
TEXT
 39
0.127000
  8
1
 10
111.996403
 20
127.253200
 30
0.000000
 40
1.436507
 72
5
 11
111.996403
 21
129.647379
 31
0.000000
 50
90.000000
  1
B1
  0
TEXT
 39
0.127000
  8
1
 10
128.755653
 20
126.774364
 30
0.000000
 40
1.436507
 72
5
 11
128.755653
 21
127.732036
 31
0.000000
 50
90.000000
  1
2
  0
TEXT
 39
0.127000
  8
1
 10
138.332367
 20
126.774364
 30
0.000000
 40
1.436507
 72
5
 11
138.332367
 21
127.732036
 31
0.000000
 50
90.000000
  1
1
  0
TEXT
 39
0.127000
  8
1
 10
126.361474
 20
127.253200
 30
0.000000
 40
1.436507
 72
5
 11
126.361474
 21
129.647379
 31
0.000000
 50
90.000000
  1
B2
  0
TEXT
 39
0.127000
  8
1
 10
92.842974
 20
178.249204
 30
0.000000
 40
1.436507
 72
5
 11
92.842974
 21
179.206876
 31
0.000000
 50
90.000000
  1
1
  0
TEXT
 39
0.127000
  8
1
 10
80.872081
 20
178.249204
 30
0.000000
 40
1.436507
 72
5
 11
80.872081
 21
179.206876
 31
0.000000
 50
90.000000
  1
2
  0
TEXT
 39
0.127000
  8
1
 10
85.660438
 20
186.628829
 30
0.000000
 40
1.436507
 72
5
 11
85.660438
 21
187.586501
 31
0.000000
 50
90.000000
  1
3
  0
TEXT
 39
0.127000
  8
1
 10
79.674992
 20
181.122218
 30
0.000000
 40
1.436507
 72
5
 11
79.674992
 21
183.516397
 31
0.000000
 50
90.000000
  1
P1
  0
TEXT
 39
0.127000
  8
1
 10
94.040063
 20
179.685711
 30
0.000000
 40
1.436507
 72
5
 11
94.040063
 21
184.952904
 31
0.000000
 50
90.000000
  1
300R
  0
TEXT
 39
0.127000
  8
1
 10
121.573117
 20
163.884132
 30
0.000000
 40
1.436507
 72
5
 11
121.573117
 21
164.841804
 31
0.000000
 50
90.000000
  1
1
  0
TEXT
 39
0.127000
  8
1
 10
37.776866
 20
77.693703
 30
0.000000
 40
1.436507
 72
5
 11
37.776866
 21
78.651374
 31
0.000000
 50
90.000000
  1
1
  0
TEXT
 39
0.127000
  8
1
 10
97.870749
 20
123.502320
 30
0.000000
 40
1.915343
 72
5
 11
97.870749
 21
128.609901
 31
0.000000
 50
90.000000
  1
GND
  0
ENDSEC
  0
EOF
